<svg width="1145" height="657" viewBox="0 0 1145 657" fill="none" xmlns="http://www.w3.org/2000/svg">
<path opacity="0.1" d="M687.74 470.31C709.84 469.05 737.26 454.06 758.58 447.43C783.814 439.603 809.147 432.073 834.58 424.84C923.12 399.646 1012.61 378.18 1103.05 360.44C1111.49 358.78 1119.94 357.16 1128.41 355.58C1115.22 327.081 1094.79 302.541 1069.15 284.41C1069.81 278.171 1070.14 271.903 1070.15 265.63C1070.15 166.49 990.92 86.1196 893.15 86.1196C863.049 86.0876 833.454 93.8568 807.25 108.67C738.05 63.1496 647.73 35.5996 548.91 35.5996C408.49 35.5996 285.22 91.2296 215.37 175L543.65 230.46L744.99 264.46C515.46 271.31 285.22 278.12 56.3503 262.04C26.1383 291.272 7.01625 330.09 2.25207 371.859C-2.51211 413.627 7.37734 455.754 30.2303 491.04C30.2303 494.63 30.3803 498.19 30.6503 501.72C36.4803 503.39 42.1103 505.01 47.1603 506.07C128.234 523.196 209.827 537.53 291.94 549.07C231.43 586.38 157.74 591.66 87.9403 607.46C121.74 635.36 167.64 652.46 218.22 652.46H971.34C1052.89 652.46 1118.99 595.69 1118.99 525.65C1131.23 505.47 1139.38 483.083 1142.99 459.76C992.09 474.33 839.31 461.68 687.74 470.31Z" fill="#FFD700"/>
<path opacity="0.1" d="M1144.02 429.93C1144.1 401.064 1137.24 372.602 1124.01 346.945C1110.78 321.287 1091.58 299.188 1068.02 282.51C1068.67 276.274 1069.01 270.009 1069.02 263.74C1069.02 164.6 989.75 84.2597 892.02 84.2597C861.918 84.2275 832.32 91.993 806.11 106.8C736.91 61.2597 646.58 33.6997 547.76 33.6997C387.02 33.6997 248.66 106.65 187.3 211.26C183.89 211.06 180.46 210.95 177 210.95C79.2603 210.95 0.000345615 291.32 0.000345615 390.46C-0.068162 425.478 10.0494 459.76 29.1203 489.13C29.1203 578.33 113.31 650.64 217.12 650.64H970.26C1051.8 650.64 1117.9 593.86 1117.9 523.82C1135.05 495.51 1144.09 463.029 1144.02 429.93Z" fill="#FFD700"/>
<path d="M934.3 319.95C932.871 318.852 931.196 318.118 929.42 317.81C927.55 317.38 925.64 317.11 923.74 316.81L899.12 313.26C896.635 312.798 894.1 312.664 891.58 312.86C890.316 312.963 889.085 313.317 887.959 313.901C886.833 314.485 885.834 315.286 885.02 316.26C884.286 317.165 883.884 318.294 883.88 319.46C884.017 320.632 884.399 321.763 885 322.78C885.238 323.254 885.442 323.746 885.61 324.25C885.846 325.381 886.139 326.499 886.49 327.6C886.599 327.838 886.74 328.06 886.91 328.26C886.915 328.316 886.915 328.373 886.91 328.43C886.64 329.81 887.51 331.25 887.12 332.58C886.78 333.72 885.67 334.41 884.97 335.36C884.503 336.034 884.245 336.83 884.227 337.65C884.209 338.469 884.433 339.276 884.87 339.97C885.62 341.13 886.98 341.92 887.37 343.25C887.88 345 886.5 346.69 885.27 348.04C883.007 350.525 880.916 353.161 879.01 355.93C878.475 356.611 878.129 357.421 878.01 358.28C877.9 360.02 879.57 361.55 879.28 363.28C879.05 364.64 877.72 365.47 876.57 366.28C872.32 369.08 868.91 373.58 868.57 378.67C867.479 370.571 864.124 362.945 858.89 356.67C857.46 354.95 855.89 353.22 855.3 351.04C855.08 350.17 855.04 349.24 854.74 348.4C853.74 345.75 850.56 344.61 849.17 342.17C848.17 340.45 848.17 338.24 846.93 336.73C845.69 335.22 843.74 334.88 842.67 333.42C842.136 332.431 841.681 331.401 841.31 330.34C840.862 329.474 840.23 328.717 839.46 328.12C839.313 328.002 839.159 327.891 839 327.79C839.166 327.641 839.299 327.459 839.391 327.256C839.482 327.053 839.53 326.832 839.53 326.61C839.53 325.44 838.37 324.67 837.36 324.09C836.06 323.35 834.79 322.55 833.55 321.72C834.903 321.09 836.075 320.13 836.96 318.93C838.07 317.138 838.529 315.02 838.26 312.93C838.192 311.243 837.562 309.627 836.47 308.34C835.84 307.67 835.05 307.19 834.39 306.56C832.68 304.89 832.1 302.42 831.39 300.14C830.45 297.14 828.98 293.99 826.24 292.4C824.92 291.63 823.38 291.27 822.09 290.46C820.8 289.65 819.72 288.12 820.17 286.65C820.47 285.65 821.4 284.96 822.03 284.11C822.782 283.01 823.071 281.659 822.833 280.349C822.595 279.038 821.851 277.874 820.76 277.11C820.02 276.64 819.11 276.23 818.96 275.37C818.381 275.219 817.856 274.909 817.446 274.474C817.036 274.038 816.756 273.496 816.64 272.91C816.415 271.734 816.415 270.526 816.64 269.35C816.9 267.49 817.157 265.636 817.41 263.79C817.851 263.973 818.323 264.067 818.8 264.067C819.277 264.067 819.75 263.973 820.19 263.79C821.056 265.194 822.061 266.507 823.19 267.71C826.235 271.306 828.607 275.422 830.19 279.86C830.76 281.46 831.34 283.25 832.82 284.1C833.33 284.39 833.91 284.54 834.41 284.85C835.027 285.279 835.556 285.822 835.97 286.45C837.17 288.04 838.37 289.62 839.56 291.21L839.62 291.45C839.653 291.59 839.707 291.725 839.78 291.85C840.002 292.099 840.309 292.256 840.64 292.29C844.32 293.14 848.45 293.92 851.64 291.91C854.52 290.11 855.78 286.55 858.22 284.17C859.95 282.48 862.4 281.17 862.89 278.79C862.306 278.609 861.732 278.399 861.17 278.16C861.67 277.66 862.17 277.08 862.85 276.42C863.838 275.452 864.729 274.391 865.51 273.25C866.354 271.842 867.026 270.338 867.51 268.77C869.437 263.276 871.37 257.78 873.31 252.28C874.23 249.68 875.15 247.06 876.31 244.53C877.51 241.79 878.93 239.16 880.24 236.47C883.621 229.474 886.23 222.13 888.02 214.57C888.338 213.538 888.443 212.453 888.33 211.38C888.05 209.65 886.74 208.29 885.49 207.06C884.233 205.699 882.801 204.512 881.23 203.53C880.442 203.039 879.563 202.711 878.647 202.563C877.73 202.415 876.793 202.452 875.89 202.67C873.33 203.42 871.72 206.04 871.13 208.67C870.54 211.3 870.76 214.01 870.51 216.67C870.15 220.52 868.83 224.24 868.51 228.1C868.34 230.33 868.51 232.59 868.24 234.82C867.748 237.738 866.732 240.543 865.24 243.1C861.997 249.196 857.607 254.609 852.31 259.04C851.7 259.55 851.07 260.04 850.47 260.59C850.47 260.16 850.54 259.72 850.6 259.29C850.165 259.403 849.74 259.553 849.33 259.74C849.381 259.235 849.33 258.725 849.18 258.24C848.38 255.85 844.82 255.24 844.18 252.81C844.074 252.209 844.017 251.6 844.01 250.99C843.8 248.86 842.35 247.06 841.85 244.99C841.39 243.08 841.74 240.99 840.85 239.22C840.092 238.113 839.198 237.105 838.19 236.22C836.989 234.847 836.123 233.214 835.66 231.45C835.53 230.96 835.41 230.45 835.27 229.96C835.422 228.85 835.299 227.72 834.91 226.67C834 224.41 831.65 222.96 830.8 220.67C830.14 218.89 830.43 216.67 829.18 215.29C828.516 214.63 827.703 214.14 826.81 213.86C822.234 212.077 817.431 210.943 812.54 210.49C809.8 210.24 806.78 210.1 804.82 208.17C802.53 205.93 802.42 201.9 799.74 200.17C797.38 198.64 794.04 199.77 792.21 201.92C791.935 202.236 791.681 202.57 791.45 202.92C791.116 201.579 791.045 200.187 791.24 198.82C791.24 198.48 791.31 198.13 791.34 197.82C795.855 196.344 799.698 193.31 802.18 189.26C802.18 189.26 802.18 189.26 802.18 189.32L802.3 189.63C802.59 190.36 803.05 191.06 803.73 191.14C804.183 191.134 804.62 190.976 804.97 190.69C805.573 190.27 806.13 189.788 806.63 189.25C806.884 188.97 807.124 188.68 807.35 188.38C807.811 187.755 808.206 187.085 808.53 186.38C809.027 185.318 809.364 184.189 809.53 183.03C809.71 181.87 809.73 180.68 809.93 179.52C810.117 178.622 810.361 177.737 810.66 176.87C810.76 176.58 810.86 176.29 810.95 176C811.04 175.71 811.17 175.32 811.27 175C811.896 172.943 812.233 170.809 812.27 168.66C812.27 168.3 812.27 167.94 812.27 167.58C812.234 166.177 811.918 164.795 811.341 163.516C810.764 162.237 809.938 161.085 808.91 160.13C807.19 158.72 804.91 158.13 803.65 156.22C802.83 154.94 802.65 153.29 802.17 151.79C801.651 149.994 800.64 148.381 799.251 147.131C797.862 145.881 796.15 145.046 794.31 144.72C792.095 144.477 789.87 145.088 788.09 146.43L787.95 146.54C786.959 147.297 786.117 148.233 785.47 149.3C784.149 148.936 782.939 148.248 781.95 147.3C780.95 146.37 780.18 145.2 779.17 144.3C778.226 143.435 777.068 142.84 775.815 142.576C774.563 142.312 773.263 142.389 772.05 142.8C770.801 143.3 769.689 144.089 768.804 145.102C767.919 146.116 767.287 147.325 766.96 148.63C766.41 150.69 766.51 153.06 765.36 154.78C764.47 156.12 763.01 156.78 761.99 158C761.356 158.772 760.924 159.689 760.73 160.67C760.609 161.218 760.552 161.778 760.56 162.34C760.56 162.59 760.56 162.84 760.62 163.08C760.62 163.08 760.62 163.16 760.62 163.2C760.656 163.474 760.713 163.744 760.79 164.01C761.075 165.023 761.584 165.96 762.28 166.75C762.94 167.506 763.765 168.101 764.69 168.49C765.069 168.637 765.456 168.761 765.85 168.86L767.04 169.13L767.46 169.23C766.024 171.926 765.227 174.916 765.13 177.969C765.033 181.023 765.638 184.058 766.9 186.84C766.9 187.12 766.83 187.4 766.8 187.68C766.637 191.617 766.811 195.562 767.32 199.47C767.46 201.02 767.54 202.73 766.59 203.96C766.158 204.443 765.671 204.876 765.14 205.25C765.68 204.55 766.23 203.86 766.79 203.17C765.38 201.75 763.15 201.57 761.15 201.71C757.28 201.999 753.522 203.146 750.15 205.07C747.91 206.36 745.61 208.07 743.05 207.77C741.54 207.6 740.05 206.77 738.58 207.17C737.754 207.508 736.982 207.966 736.29 208.53C735.743 208.922 735.083 209.126 734.41 209.11C732.84 207.18 730.41 205.87 728.53 204.3C726.391 202.395 724.432 200.296 722.68 198.03C719.44 194.12 716.21 190.2 713.03 186.25C710.35 182.93 707.6 179.34 707.13 175.09C707.082 174.668 707.059 174.244 707.06 173.82C707.125 171.8 707.38 169.791 707.82 167.82C707.939 167.344 707.939 166.846 707.82 166.37C707.52 165.37 706.37 165 705.38 164.78C705.51 164.01 705.6 163.22 705.65 162.47C706.21 153.87 705.6 145.13 707.42 136.71C708.11 133.47 709.24 130.19 711.57 127.84C715.22 124.15 721.33 123.26 724.13 118.89C726.47 115.25 725.54 110.1 722.6 106.89C719.66 103.68 715.13 102.37 710.82 102.53C709.611 102.488 708.417 102.808 707.39 103.45C706.431 104.302 705.713 105.392 705.31 106.61L701.02 117.04C699.776 119.755 698.727 122.555 697.88 125.42C696.68 129.8 696.41 134.42 695.46 138.84C695.46 142.24 693.27 146.48 692.07 149.61C690.73 153.13 689.28 156.61 688.07 160.2C687.77 161.1 686.72 163.77 686.07 166.2C685.825 166.343 685.596 166.514 685.39 166.71C684.868 167.379 684.393 168.084 683.97 168.82C683.06 170.02 681.58 170.66 680.58 171.82C679.58 172.98 679.37 175.11 680.76 175.69C681.042 175.784 681.334 175.848 681.63 175.88C681.812 175.895 681.993 175.925 682.17 175.97C683.67 176.39 684.26 178.28 684.04 179.84C683.82 181.4 683.04 182.84 682.91 184.4C682.64 187.16 684.26 189.73 685.82 192.05C687.435 194.565 689.219 196.967 691.16 199.24C692.57 200.82 694.16 202.24 695.58 203.76C700.99 209.32 705.29 215.82 710.15 221.86C711.899 224.139 713.887 226.225 716.08 228.08C717.513 229.2 719.012 230.232 720.57 231.17L728.93 236.47C729.878 237.164 730.951 237.67 732.09 237.96C732.462 238.01 732.839 238.01 733.21 237.96C733.26 238.21 733.3 238.45 733.36 238.7C734.01 241.32 735.44 243.7 735.6 246.37C735.76 249.04 735.52 251.77 735.71 254.47C735.89 256.96 736.44 259.47 736.58 261.92C736.86 266.64 735.7 271.3 734.58 275.92C732.89 282.68 731.87 289.58 728.58 295.71C727.66 297.4 726.58 299.12 726.58 301.05C726.58 301.28 726.58 301.52 726.64 301.75L725.14 302.6C724.7 302.85 724.26 303.1 723.86 303.36C721.96 304.6 719.93 305.97 719.15 308.11C718.52 309.84 718.81 311.82 718.05 313.5C718.014 313.575 717.974 313.648 717.93 313.72C717.13 315.28 715.54 316.44 715.18 318.15C714.91 319.46 715.43 320.85 715.18 322.15C715.18 322.15 715.18 322.15 715.18 322.2C714.953 322.852 714.772 323.521 714.64 324.2C714.629 324.421 714.65 324.643 714.7 324.86C714.891 325.617 715.31 326.298 715.9 326.81C716.26 327.155 716.652 327.467 717.07 327.74C717.497 328.02 717.937 328.28 718.39 328.52L718.65 328.66C719.03 328.86 719.41 329.05 719.8 329.23L720.06 329.34C720.51 329.54 720.97 329.72 721.43 329.88L721.75 329.98C722.11 330.1 722.48 330.21 722.85 330.3L723.1 330.38L723.33 330.43L724.33 330.64L724.7 330.71C725.14 330.783 725.59 330.843 726.05 330.89H726.45C726.79 330.89 727.12 330.94 727.45 330.95H727.92C728.27 330.95 728.61 330.95 728.92 330.95H729.28C729.75 330.95 730.22 330.88 730.69 330.82H730.84C731.26 330.76 731.68 330.69 732.1 330.6L732.42 330.53C732.81 330.44 733.2 330.35 733.59 330.23L733.8 330.17C734.27 330.03 734.74 329.88 735.2 329.7C736.792 329.045 738.336 328.28 739.82 327.41C740.82 326.86 741.82 326.3 742.82 325.79C743.562 325.416 744.323 325.082 745.1 324.79C746.992 323.982 749.049 323.639 751.1 323.79C752.112 323.927 753.115 324.131 754.1 324.4C754.1 324.51 754.1 324.62 754.1 324.73C754.914 329.53 755.717 334.33 756.51 339.13C757.819 338.187 759.204 337.354 760.65 336.64C760.38 337.364 760.202 338.12 760.12 338.89C760.06 339.485 760.06 340.084 760.12 340.68C760.21 341.63 760.41 342.68 759.84 343.43C759.49 343.89 758.84 344.15 758.65 344.67C758.511 345.201 758.477 345.755 758.55 346.3C758.509 346.921 758.246 347.507 757.81 347.952C757.373 348.396 756.791 348.668 756.17 348.72C756.457 349.525 756.463 350.402 756.189 351.212C755.915 352.021 755.377 352.714 754.66 353.18C754.242 353.381 753.852 353.636 753.5 353.94C753.158 354.381 752.928 354.9 752.83 355.45C751.509 360.402 748.791 364.869 745 368.32C743.578 369.437 742.281 370.704 741.13 372.1C740.419 373.18 739.832 374.337 739.38 375.55C736.714 382.07 734.007 388.593 731.26 395.12C729.74 398.77 728.26 402.48 727.78 406.41C726.58 417.19 716.98 426.33 718.78 437.03C719.144 439.702 720.222 442.228 721.9 444.34C723.9 446.75 726.9 448.13 729.9 449.25C737.61 452.25 745.74 453.89 753.84 455.54L766.56 458.15C769.056 458.724 771.589 459.125 774.14 459.35C777.21 459.56 780.36 459.27 783.35 460.05C785.2 460.53 786.97 461.42 788.88 461.52C790.52 461.61 792.54 461.26 793.51 462.6C794.48 463.94 793.73 465.71 794.65 466.9C796.13 468.79 799.74 466.9 801.35 468.68C801.79 469.363 802.127 470.108 802.35 470.89C802.595 471.373 802.935 471.802 803.35 472.15C803.448 472.714 803.488 473.287 803.47 473.86C803.262 476.182 802.778 478.471 802.03 480.68C800.83 484.74 799.634 488.803 798.44 492.87C797.985 494.306 797.65 495.778 797.44 497.27C797.365 497.994 797.365 498.725 797.44 499.45C797.65 501.66 798.92 503.94 801.03 504.66C802.667 505.092 804.408 504.877 805.89 504.06C807.321 503.313 808.663 502.407 809.89 501.36C812.104 499.684 814.05 497.681 815.66 495.42C820.66 487.94 819.04 477.82 822.55 469.55C824.88 464.03 829.42 459.55 830.93 453.73C831.283 452.622 831.325 451.439 831.05 450.31C830.42 448.31 828.29 447.17 826.3 446.45H826.21C824.576 445.868 822.905 445.39 821.21 445.02C820.79 444.93 820.36 444.86 819.93 444.79C818.979 444.015 818.222 443.029 817.72 441.91C817.642 441.314 817.484 440.733 817.25 440.18C817.091 439.941 816.878 439.744 816.627 439.605C816.377 439.466 816.097 439.389 815.81 439.38C814.81 439.28 813.47 439.64 812.38 439.56C810.15 439.4 808.67 437.21 806.67 436.2C804.67 435.19 802.5 435.44 800.37 435.59C799.608 435.694 798.834 435.646 798.09 435.45C797.202 435.041 796.39 434.482 795.69 433.8C794.459 432.842 793.023 432.183 791.494 431.876C789.965 431.569 788.385 431.622 786.88 432.03C785.923 432.416 784.91 432.646 783.88 432.71C781.93 432.6 780.55 430.86 779.11 429.54C775.17 425.93 769.56 424.98 764.78 422.61C764.049 422.337 763.438 421.812 763.06 421.13C762.51 419.77 763.75 418.41 764.87 417.48L773.09 410.65C782.09 403.17 793.34 397.54 797.52 386.57C797.956 385.099 798.632 383.71 799.52 382.46C799.844 382.078 800.217 381.742 800.63 381.46C802.449 380.281 804.652 379.851 806.78 380.26C809.373 380.84 811.831 381.913 814.02 383.42C817.6 385.586 821.084 387.92 824.47 390.42C827.825 392.817 831.015 395.436 834.02 398.26C839.27 403.26 843.64 409.19 848.53 414.58C853.42 419.97 859.01 425 865.8 427.58C872.59 430.16 880.8 430.05 886.63 425.72C893.36 420.72 895.52 411.78 897.22 403.58C900.97 399.96 902.1 394.45 903.93 389.58C905.08 386.49 906.55 383.58 907.79 380.5C909.27 376.88 910.43 373.14 911.59 369.41C912.905 365.664 913.797 361.783 914.25 357.84C914.73 351.61 913.06 344.98 914.81 339.13C917.12 338.62 919.22 337.32 921.49 336.56C924.87 335.45 928.49 335.63 932.07 335.65H932.3C933.534 335.781 934.775 335.488 935.82 334.82C937.02 333.82 937.21 332.11 937.27 330.56C937.41 326.73 937.17 322.43 934.3 319.95ZM789.41 149.37C788.583 149.574 787.728 149.635 786.88 149.55L789.41 149.37Z" fill="url(#paint0_linear)"/>
<path d="M793.35 212.629C792.139 213.657 790.72 214.411 789.19 214.839L782.1 217.379C778.25 218.759 774.23 220.149 770.17 219.649C767.9 219.369 758.17 217.939 756.7 216.169C754.46 213.429 762.31 209.399 764.99 207.089C765.598 206.652 766.16 206.156 766.67 205.609C767.67 204.389 767.54 202.679 767.4 201.139C766.892 197.238 766.718 193.3 766.88 189.369C766.958 188.432 767.092 187.5 767.28 186.579C768.28 181.979 772.56 183.659 775.94 184.879C780.009 186.201 783.943 187.905 787.69 189.969C788.832 190.557 789.824 191.399 790.59 192.429C792.07 194.669 791.48 197.609 791.24 200.429C791.03 202.619 791.04 204.719 792.41 206.309C793.1 206.917 793.732 207.586 794.3 208.309C794.62 209.037 794.701 209.847 794.53 210.624C794.359 211.4 793.946 212.103 793.35 212.629Z" fill="#BE6F72"/>
<path d="M695.411 140.559C696.411 136.129 696.631 131.559 697.831 127.169C698.678 124.315 699.727 121.524 700.971 118.819L705.381 108.529C705.784 107.314 706.502 106.227 707.461 105.379C708.489 104.742 709.682 104.422 710.891 104.459C715.201 104.299 719.731 105.639 722.671 108.809C725.611 111.979 726.541 117.109 724.201 120.739C721.401 125.109 715.291 125.989 711.641 129.669C709.311 132.019 708.18 135.289 707.49 138.519C705.67 146.919 706.281 155.629 705.721 164.209C705.541 166.879 705.021 169.929 702.721 171.309C701.33 171.99 699.784 172.29 698.24 172.179L691.68 172.289C690.58 172.289 686.591 172.979 685.861 172.149C684.581 170.699 687.501 163.479 688.031 161.869C689.211 158.299 690.661 154.819 692.031 151.309C693.221 148.179 695.411 143.949 695.411 140.559Z" fill="#BE6F72"/>
<path d="M830.86 454.718C829.35 460.498 824.81 464.998 822.48 470.508C818.97 478.758 820.55 488.848 815.59 496.308C813.981 498.574 812.036 500.58 809.82 502.258C808.592 503.302 807.25 504.205 805.82 504.948C804.338 505.766 802.597 505.981 800.96 505.548C798.85 504.828 797.58 502.548 797.37 500.348C797.295 499.627 797.295 498.899 797.37 498.178C797.58 496.689 797.915 495.221 798.37 493.788C799.57 489.741 800.767 485.688 801.96 481.628C802.707 479.426 803.19 477.144 803.4 474.828C803.53 472.308 801.93 469.028 802.61 466.678C802.92 465.618 804.08 464.678 804.61 463.788C805.363 462.507 805.941 461.132 806.33 459.698C807.15 456.908 807.71 453.928 809.43 451.578C810.552 450.184 811.865 448.955 813.33 447.928C814.411 446.98 815.678 446.268 817.05 445.838C818.381 445.604 819.748 445.669 821.05 446.028C822.746 446.39 824.417 446.865 826.05 447.448H826.14C828.14 448.168 830.26 449.278 830.89 451.298C831.196 452.419 831.186 453.603 830.86 454.718Z" fill="#3F3D56"/>
<path d="M937.261 331.779C937.201 333.329 937.011 335.059 935.811 336.029C934.766 336.697 933.524 336.99 932.291 336.859H932.021C928.451 336.859 924.821 336.659 921.441 337.769C918.871 338.619 916.511 340.179 913.831 340.489C910.141 340.909 906.671 338.889 903.401 337.129C900.322 335.47 897.161 333.968 893.931 332.629C891.811 331.759 887.481 331.199 886.461 328.879C886.111 327.781 885.817 326.666 885.581 325.539C885.413 325.035 885.209 324.544 884.971 324.069C884.371 323.055 883.989 321.928 883.851 320.759C883.855 319.593 884.257 318.464 884.991 317.559C885.806 316.593 886.805 315.798 887.929 315.22C889.053 314.641 890.281 314.291 891.541 314.189C894.061 313.993 896.595 314.127 899.081 314.589L923.701 318.129C925.601 318.399 927.511 318.669 929.381 319.129C931.156 319.437 932.831 320.171 934.261 321.269C937.171 323.709 937.411 327.999 937.261 331.779Z" fill="#3F3D56"/>
<path d="M915.621 338.179C912.621 344.509 914.781 351.999 914.241 358.999C913.787 362.932 912.895 366.803 911.581 370.539C910.421 374.259 909.261 377.989 907.781 381.599C906.541 384.599 905.071 387.599 903.921 390.659C902.091 395.539 900.921 401.029 897.211 404.659C895.511 412.839 893.351 421.778 886.621 426.738C880.771 431.058 872.621 431.209 865.791 428.599C858.961 425.989 853.411 420.989 848.521 415.599C843.631 410.209 839.261 404.339 834.011 399.319C831.002 396.495 827.804 393.878 824.441 391.488C821.054 389.028 817.571 386.715 813.991 384.549C811.799 383.049 809.342 381.98 806.751 381.399C804.622 380.99 802.419 381.42 800.601 382.599C800.187 382.881 799.814 383.217 799.491 383.599C798.6 384.844 797.924 386.23 797.491 387.699C793.291 398.639 782.021 404.259 773.021 411.719L764.801 418.529C763.681 419.459 762.441 420.818 762.991 422.168C763.369 422.851 763.979 423.376 764.711 423.649C769.491 426.009 775.101 426.959 779.041 430.559C780.481 431.879 781.861 433.619 783.811 433.719C784.84 433.658 785.853 433.432 786.811 433.048C788.315 432.641 789.894 432.589 791.422 432.894C792.951 433.199 794.388 433.855 795.621 434.809C796.321 435.491 797.132 436.049 798.021 436.459C798.764 436.655 799.539 436.703 800.301 436.599C802.431 436.449 804.691 436.259 806.601 437.209C808.511 438.159 810.081 440.398 812.311 440.559C813.401 440.639 814.701 440.279 815.741 440.379C816.027 440.388 816.307 440.465 816.557 440.604C816.808 440.743 817.021 440.94 817.181 441.178C817.414 441.728 817.572 442.307 817.651 442.899C818.061 444.309 819.441 445.169 820.341 446.329C821.721 448.109 821.921 450.529 821.781 452.779C821.328 459.814 818.192 466.407 813.021 471.199C811.552 472.699 809.68 473.742 807.631 474.199C806.604 474.413 805.537 474.3 804.578 473.875C803.62 473.449 802.82 472.734 802.291 471.829C802.067 471.05 801.73 470.309 801.291 469.629C799.681 467.859 796.071 469.739 794.591 467.849C793.671 466.669 794.331 464.779 793.451 463.559C792.571 462.339 790.451 462.559 788.821 462.488C786.911 462.388 785.141 461.489 783.291 461.019C780.291 460.239 777.151 460.529 774.081 460.319C771.529 460.094 768.997 459.693 766.501 459.118L753.781 456.519C745.681 454.869 737.551 453.199 729.841 450.249C726.891 449.129 723.921 447.749 721.841 445.349C720.164 443.24 719.086 440.718 718.721 438.048C716.911 427.378 726.511 418.259 727.721 407.509C728.151 403.589 729.721 399.889 731.201 396.249C733.914 389.742 736.621 383.232 739.321 376.719C739.757 375.506 740.327 374.345 741.021 373.259C742.171 371.866 743.469 370.602 744.891 369.489C748.68 366.05 751.398 361.592 752.721 356.649C752.819 356.098 753.049 355.58 753.391 355.139C753.745 354.842 754.135 354.59 754.551 354.389C755.265 353.924 755.802 353.232 756.076 352.425C756.35 351.618 756.344 350.742 756.061 349.939C756.681 349.887 757.263 349.615 757.7 349.17C758.137 348.726 758.4 348.14 758.441 347.519C758.368 346.977 758.402 346.427 758.541 345.899C758.781 345.379 759.381 345.119 759.731 344.659C760.301 343.909 760.101 342.859 760.011 341.919C759.951 341.323 759.951 340.724 760.011 340.129C760.229 338.011 761.177 336.035 762.691 334.539C765.081 332.189 768.481 332.799 771.781 332.239C775.072 331.528 778.287 330.5 781.381 329.169C790.057 325.75 799.194 323.637 808.491 322.899C817.834 322.164 827.218 323.658 835.871 327.259C837.129 327.768 838.316 328.441 839.401 329.259C840.17 329.852 840.802 330.606 841.251 331.469C841.62 332.527 842.074 333.554 842.611 334.539C843.681 335.999 845.701 336.469 846.871 337.849C848.041 339.229 848.141 341.559 849.111 343.269C850.501 345.709 853.721 346.839 854.681 349.489C854.981 350.329 855.021 351.248 855.241 352.118C855.781 354.298 857.401 356.019 858.831 357.739C864.073 364.009 867.429 371.637 868.511 379.739C868.831 374.669 872.241 370.179 876.511 367.379C877.661 366.629 878.991 365.799 879.221 364.439C879.511 362.719 877.841 361.189 877.951 359.439C878.072 358.584 878.417 357.777 878.951 357.099C880.856 354.336 882.948 351.707 885.211 349.229C886.441 347.879 887.821 346.229 887.311 344.449C886.921 343.119 885.561 342.339 884.811 341.179C884.373 340.487 884.149 339.682 884.167 338.863C884.185 338.045 884.443 337.25 884.911 336.579C885.611 335.629 886.721 334.938 887.061 333.808C887.451 332.478 886.581 331.039 886.851 329.669C887.216 328.571 887.942 327.63 888.911 326.999C890.237 325.79 891.746 324.798 893.381 324.058C896.021 323.058 898.961 323.429 901.761 323.819C906.441 324.469 911.691 325.469 914.331 329.389C916.021 331.839 916.881 335.559 915.621 338.179Z" fill="#65617D"/>
<path opacity="0.1" d="M937.26 331.779C937.2 333.329 937.01 335.059 935.81 336.029C934.765 336.697 933.524 336.99 932.29 336.859H932.02C932.43 334.779 934.96 333.589 935.4 331.479C935.476 330.831 935.417 330.174 935.228 329.549C935.038 328.925 934.723 328.346 934.3 327.849C932.16 324.959 928.72 323.359 925.3 322.189C915.639 318.876 905.288 318.101 895.24 319.939C892.508 320.384 889.85 321.201 887.34 322.369C886.509 322.889 885.707 323.457 884.94 324.069C884.34 323.055 883.959 321.928 883.82 320.759C883.824 319.593 884.227 318.464 884.96 317.559C885.776 316.593 886.775 315.798 887.899 315.22C889.023 314.641 890.25 314.291 891.51 314.189C894.03 313.993 896.565 314.127 899.05 314.589L923.67 318.129C925.57 318.399 927.48 318.669 929.35 319.129C931.126 319.437 932.801 320.171 934.23 321.269C937.17 323.709 937.41 327.999 937.26 331.779Z" fill="black"/>
<path opacity="0.1" d="M830.86 454.718C829.35 460.498 824.81 464.998 822.48 470.508C818.97 478.758 820.55 488.848 815.59 496.308C813.981 498.574 812.036 500.58 809.82 502.258C808.592 503.302 807.25 504.205 805.82 504.948C804.338 505.766 802.597 505.981 800.96 505.548C798.85 504.828 797.58 502.548 797.37 500.348C797.295 499.627 797.295 498.899 797.37 498.178L797.43 498.338C798.3 500.438 799.72 502.638 801.96 503.008C802.801 503.069 803.645 502.955 804.44 502.675C805.235 502.394 805.964 501.953 806.58 501.378C809.88 498.728 811.8 494.778 813.63 490.968C815.062 488.221 816.196 485.327 817.01 482.338C817.41 480.638 817.6 478.898 818.01 477.198C819.91 468.938 826.38 462.198 827.81 453.828C827.927 453.252 827.954 452.662 827.89 452.078C827.702 451.316 827.412 450.583 827.03 449.898C826.683 449.124 826.428 448.312 826.27 447.478C828.27 448.198 830.39 449.308 831.02 451.328C831.279 452.451 831.223 453.624 830.86 454.718Z" fill="black"/>
<path opacity="0.1" d="M815.761 440.378C814.835 442.798 813.278 444.925 811.251 446.538C808.404 448.707 805.071 450.149 801.541 450.738C799.898 451.157 798.173 451.137 796.541 450.678C794.321 449.908 792.721 447.828 790.451 447.228C788.831 446.788 787.091 447.178 785.451 446.938C782.501 446.528 780.211 444.278 777.831 442.478C770.541 436.998 760.971 435.228 753.681 429.748C753.356 429.549 753.087 429.27 752.901 428.938C752.761 428.579 752.709 428.191 752.751 427.808C752.778 424.484 753.525 421.206 754.941 418.198C756.1 416.1 757.481 414.132 759.061 412.328C765.591 404.328 772.151 396.268 779.971 389.518C783.251 386.688 786.831 384.048 790.971 382.768C793.271 382.058 797.811 381.388 800.611 382.588C800.197 382.87 799.824 383.207 799.501 383.588C798.61 384.834 797.934 386.22 797.501 387.688C793.291 398.638 782.021 404.258 773.021 411.718L764.801 418.528C763.681 419.458 762.441 420.818 762.991 422.168C763.369 422.851 763.979 423.376 764.711 423.648C769.491 426.008 775.101 426.958 779.041 430.558C780.481 431.878 781.861 433.618 783.811 433.718C784.84 433.658 785.853 433.432 786.811 433.048C788.315 432.641 789.894 432.588 791.422 432.894C792.951 433.199 794.388 433.854 795.621 434.808C796.321 435.491 797.132 436.049 798.021 436.458C798.764 436.655 799.539 436.702 800.301 436.598C802.431 436.448 804.691 436.258 806.601 437.208C808.511 438.158 810.081 440.398 812.311 440.558C813.421 440.638 814.721 440.258 815.761 440.378Z" fill="black"/>
<path d="M723.79 304.658C721.89 305.878 719.87 307.258 719.09 309.378C718.45 311.108 718.75 313.088 717.98 314.768C717.21 316.448 715.48 317.618 715.1 319.418C714.83 320.728 715.36 322.108 715.1 323.418C714.874 324.1 714.69 324.794 714.55 325.498C714.45 326.988 715.73 328.198 716.98 329.028C719.642 330.759 722.672 331.842 725.828 332.189C728.983 332.537 732.176 332.139 735.15 331.028C737.82 330.028 740.23 328.398 742.79 327.118C745.287 325.681 748.142 324.987 751.02 325.118C752.67 325.298 754.25 325.898 755.9 326.118C756.715 326.28 757.557 326.24 758.353 326.003C759.15 325.766 759.876 325.339 760.47 324.758C760.98 324.055 761.322 323.244 761.47 322.388C762.86 316.898 762.23 311.078 760.91 305.558C759.59 300.038 757.59 294.728 756.18 289.238C755.18 285.168 754.41 280.998 752.74 277.148C751.07 273.298 748.26 269.718 744.33 268.248C744.02 268.096 743.669 268.051 743.33 268.118C743.078 268.224 742.855 268.389 742.68 268.598C739.572 271.893 737.229 275.834 735.82 280.138C734.25 284.928 733.82 290.008 732.38 294.818C731.76 296.818 730.96 299.498 729.38 301.028C727.8 302.558 725.58 303.508 723.79 304.658Z" fill="#3F3D56"/>
<path opacity="0.1" d="M761.5 322.359C761.333 323.218 760.974 324.028 760.45 324.729C759.858 325.311 759.131 325.739 758.334 325.974C757.537 326.209 756.695 326.245 755.88 326.079C754.24 325.879 752.66 325.269 751.01 325.079C748.132 324.946 745.276 325.64 742.781 327.079C740.221 328.359 737.78 329.949 735.13 330.979C731.254 332.449 727.019 332.69 723 331.669C720.866 331.132 718.838 330.24 717 329.029C715.74 328.209 714.47 327.029 714.57 325.499C714.71 324.798 714.894 324.107 715.12 323.429C715.38 322.119 714.86 320.739 715.12 319.429C715.5 317.629 717.24 316.429 718 314.769C718.76 313.109 718.471 311.119 719.101 309.389C719.881 307.259 721.91 305.889 723.81 304.659C725.71 303.429 727.97 302.489 729.49 300.999C729.687 300.767 729.864 300.519 730.02 300.259C731.117 298.568 731.921 296.706 732.401 294.749C733.871 289.929 734.27 284.859 735.83 280.059C737.245 275.757 739.591 271.821 742.7 268.529C742.867 268.314 743.088 268.148 743.341 268.049C743.678 267.98 744.029 268.022 744.341 268.169C748.261 269.649 751.07 273.229 752.75 277.079C754.43 280.929 755.14 285.079 756.19 289.159C757.59 294.649 759.601 299.979 760.921 305.489C762.241 310.999 762.89 316.859 761.5 322.359Z" fill="black"/>
<path opacity="0.1" d="M791.24 200.399C786.538 201.893 781.45 201.596 776.953 199.566C772.456 197.535 768.869 193.915 766.88 189.399C766.958 188.462 767.092 187.53 767.28 186.609C768.28 182.009 772.56 183.689 775.94 184.909C780.009 186.231 783.943 187.935 787.69 189.999C788.832 190.588 789.824 191.429 790.59 192.459C792.07 194.669 791.48 197.609 791.24 200.399Z" fill="black"/>
<path d="M785.2 200.339C796.246 200.339 805.2 191.385 805.2 180.339C805.2 169.293 796.246 160.339 785.2 160.339C774.155 160.339 765.2 169.293 765.2 180.339C765.2 191.385 774.155 200.339 785.2 200.339Z" fill="#BE6F72"/>
<path opacity="0.1" d="M839.471 329.799C839.471 331.459 837.221 331.989 835.551 331.899C829.551 331.549 823.68 329.899 817.74 330.399C810.23 331.079 803.331 335.229 795.801 335.609C792.901 335.759 789.951 335.329 787.091 335.859C783.391 336.549 780.09 338.799 776.32 339.119C773.05 339.399 769.821 338.169 766.551 338.299C764.264 338.435 762.035 339.07 760.021 340.159C760.239 338.041 761.187 336.065 762.701 334.569C765.091 332.219 768.491 332.829 771.791 332.269C775.082 331.558 778.297 330.53 781.391 329.199C790.067 325.78 799.204 323.667 808.5 322.929C817.838 322.186 827.218 323.67 835.87 327.259C837.129 327.768 838.316 328.441 839.401 329.259C839.455 329.433 839.479 329.616 839.471 329.799Z" fill="black"/>
<path d="M775.95 216.859L767.85 213.859L764.43 212.599C763.037 212.015 761.57 211.625 760.07 211.439C756.15 211.139 752.46 213.749 750.37 217.079C748.28 220.409 747.49 224.379 746.82 228.249C745.9 233.542 745.12 238.856 744.48 244.189C743.791 249.005 743.44 253.864 743.43 258.729C743.66 271.109 746.28 283.319 749.16 295.369C750.571 300.712 751.636 306.14 752.35 311.619C752.59 313.879 752.7 316.149 752.94 318.419C753.2 320.969 753.62 323.489 754.04 326.019L756.45 340.389C759.45 338.259 762.86 336.389 766.55 336.279C769.82 336.159 773.06 337.379 776.32 337.099C780.07 336.789 783.39 334.539 787.09 333.849C789.95 333.319 792.9 333.739 795.81 333.599C803.33 333.219 810.24 329.059 817.74 328.389C823.69 327.849 829.6 329.529 835.56 329.879C837.22 329.979 839.47 329.449 839.47 327.779C839.47 326.619 838.31 325.849 837.3 325.269C832.539 322.402 828.009 319.169 823.75 315.599C819.81 312.479 815.81 309.279 813.1 305.059C806.57 294.909 808.81 281.179 803.24 270.469C798.71 261.769 803.24 250.369 803.24 240.559C803.24 235.669 803.24 230.719 802.09 225.969C801.371 223.312 800.476 220.707 799.41 218.169L795.52 208.319C795.439 208.031 795.28 207.771 795.06 207.569C794.799 207.389 794.488 207.295 794.17 207.299C791.834 207.159 789.53 207.897 787.71 209.369C785.88 210.859 784.71 212.999 782.91 214.549C780.94 216.259 778.4 217.759 775.95 216.859Z" fill="#E3E8F4"/>
<path d="M789.02 211.179C789.66 208.439 790.35 205.589 792.18 203.449C794.01 201.309 797.35 200.179 799.71 201.709C802.39 203.449 802.5 207.469 804.79 209.709C806.79 211.629 809.79 211.779 812.51 212.029C817.401 212.474 822.205 213.605 826.78 215.389C827.673 215.666 828.485 216.153 829.15 216.809C830.4 218.229 830.15 220.409 830.77 222.179C831.62 224.459 833.97 225.909 834.88 228.179C835.88 230.699 834.88 233.519 834.04 236.109C832.53 240.759 831.58 245.589 830.11 250.259C828.64 254.929 826.55 259.529 823.11 263.049C821.59 264.609 819.33 266.049 817.33 265.119L816.56 270.669C816.335 271.842 816.335 273.046 816.56 274.219C816.676 274.806 816.956 275.348 817.366 275.783C817.777 276.218 818.301 276.529 818.88 276.679C819.03 277.539 819.94 277.949 820.68 278.419C821.226 278.793 821.693 279.271 822.053 279.826C822.413 280.381 822.659 281.003 822.778 281.654C822.896 282.305 822.883 282.973 822.741 283.619C822.599 284.266 822.33 284.877 821.95 285.419C821.32 286.269 820.39 286.939 820.09 287.949C819.64 289.409 820.71 290.949 822.01 291.749C823.31 292.549 824.84 292.919 826.16 293.689C828.9 295.269 830.37 298.379 831.31 301.399C832.01 303.679 832.59 306.149 834.31 307.809C834.97 308.439 835.76 308.919 836.39 309.579C837.481 310.868 838.11 312.483 838.18 314.169C838.454 316.259 837.995 318.38 836.88 320.169C834.88 323.029 831.15 323.879 827.88 325.169C822.57 327.349 818.2 331.249 813.52 334.569C811.614 336.104 809.368 337.16 806.97 337.649C803.73 338.079 800.54 336.649 797.28 336.519C795.33 336.537 793.389 336.792 791.5 337.279L785.5 338.579C785.82 333.929 783.26 329.269 781.83 324.839C779.13 316.499 778.63 307.579 779.27 298.839C779.91 290.099 781.69 281.479 783.45 272.899C784.68 266.899 784.56 260.629 786.45 254.799C788.22 249.189 790.75 243.799 791.68 237.959C793.2 228.509 786.88 220.499 789.02 211.179Z" fill="#3F3D56"/>
<path d="M834.511 229.668C835.062 230.685 835.451 231.781 835.661 232.918C836.123 234.68 836.989 236.31 838.191 237.678C839.197 238.566 840.09 239.573 840.851 240.678C841.771 242.418 841.421 244.538 841.851 246.438C842.351 248.508 843.801 250.308 844.011 252.438C844.017 253.049 844.074 253.658 844.181 254.258C844.831 256.678 848.391 257.258 849.181 259.678C849.711 261.248 848.801 262.958 848.971 264.608C849.095 265.119 849.125 265.647 849.061 266.168C848.834 266.758 848.438 267.266 847.921 267.628C844.611 270.79 842.32 274.867 841.341 279.338C840.377 283.785 839.871 288.319 839.831 292.868L835.921 287.698C835.507 287.071 834.977 286.528 834.361 286.098C833.861 285.798 833.281 285.648 832.771 285.348C831.291 284.508 830.711 282.728 830.141 281.128C828.557 276.699 826.186 272.593 823.141 269.008C821.551 267.138 819.701 265.258 819.351 262.828C819.246 261.712 819.306 260.587 819.531 259.488C820.531 252.938 821.601 246.228 824.791 240.418C826.281 237.698 828.211 235.238 829.641 232.478C830.601 230.648 831.951 225.888 834.511 229.668Z" fill="#3F3D56"/>
<path d="M735.86 235.959C735.879 236.801 735.664 237.631 735.24 238.359C734.858 238.802 734.36 239.13 733.802 239.306C733.244 239.483 732.648 239.501 732.08 239.359C730.942 239.073 729.869 238.571 728.92 237.879C726.134 236.119 723.347 234.356 720.56 232.589C719.005 231.651 717.505 230.623 716.07 229.509C713.877 227.657 711.889 225.575 710.14 223.299C705.28 217.299 700.98 210.789 695.57 205.299C694.1 203.799 692.57 202.359 691.15 200.789C689.21 198.519 687.426 196.121 685.81 193.609C684.25 191.299 682.63 188.739 682.9 185.979C683.06 184.419 683.81 182.979 684.03 181.429C684.25 179.879 683.66 177.989 682.16 177.569C681.983 177.524 681.803 177.494 681.62 177.479C681.324 177.448 681.033 177.384 680.75 177.289C679.36 176.709 679.57 174.559 680.57 173.429C681.57 172.299 683.05 171.669 683.96 170.429C684.384 169.693 684.858 168.988 685.38 168.319C686.05 167.745 686.85 167.343 687.71 167.149C693.479 165.449 699.58 165.219 705.46 166.479C706.46 166.699 707.6 167.099 707.9 168.069C708.02 168.541 708.02 169.036 707.9 169.509C707.459 171.481 707.205 173.489 707.14 175.509C707.139 175.93 707.162 176.351 707.21 176.769C707.68 181.009 710.43 184.599 713.11 187.909C716.29 191.849 719.52 195.759 722.76 199.659C724.513 201.919 726.471 204.011 728.61 205.909C730.61 207.569 733.2 208.909 734.76 211.039C736.03 212.759 735.62 215.109 735.76 217.179C736.226 223.429 736.259 229.704 735.86 235.959Z" fill="#3F3D56"/>
<path d="M862.86 277.679C863.848 276.719 864.739 275.664 865.52 274.529C866.361 273.123 867.032 271.623 867.52 270.059L873.32 253.609C874.24 251.009 875.16 248.399 876.32 245.869C877.52 243.139 878.94 240.509 880.25 237.869C883.62 230.922 886.225 223.629 888.02 216.119C888.336 215.087 888.442 214.002 888.33 212.929C888.05 211.199 886.74 209.849 885.49 208.619C884.233 207.261 882.801 206.078 881.23 205.099C880.442 204.609 879.564 204.28 878.647 204.133C877.73 203.985 876.793 204.021 875.89 204.239C873.33 204.989 871.72 207.609 871.13 210.239C870.54 212.869 870.76 215.559 870.51 218.239C870.15 222.079 868.83 225.789 868.51 229.639C868.34 231.869 868.51 234.119 868.24 236.339C867.748 239.254 866.732 242.056 865.24 244.609C861.991 250.69 857.601 256.088 852.31 260.509C850.861 261.579 849.557 262.833 848.43 264.239C847.49 265.646 846.853 267.233 846.56 268.899C845.896 271.437 846.184 274.13 847.37 276.469C849 279.249 852.13 280.469 855.12 281.089C859.16 281.929 860.09 280.549 862.86 277.679Z" fill="#BE6F72"/>
<path d="M785.32 151.359C786.181 149.741 787.5 148.413 789.111 147.54C790.722 146.666 792.555 146.287 794.38 146.449C796.219 146.775 797.93 147.608 799.319 148.856C800.708 150.104 801.72 151.716 802.24 153.509C802.71 154.999 802.9 156.649 803.72 157.929C804.96 159.859 807.26 160.419 808.98 161.819C810.007 162.773 810.834 163.922 811.411 165.2C811.988 166.478 812.304 167.858 812.34 169.259C812.436 172.121 811.985 174.976 811.01 177.669C810.597 178.818 810.263 179.994 810.01 181.189C809.81 182.349 809.79 183.529 809.61 184.689C809.389 186.193 808.868 187.638 808.08 188.938C807.292 190.238 806.252 191.367 805.02 192.259C804.67 192.545 804.233 192.703 803.78 192.709C803 192.619 802.52 191.709 802.23 190.889C800.64 186.299 801.02 180.689 798.09 177.029C796.757 175.552 795.147 174.353 793.35 173.499C792.618 173.026 791.793 172.716 790.93 172.589C789.662 172.657 788.443 173.103 787.43 173.869C785.32 175.285 782.978 176.32 780.51 176.929C779.279 177.221 777.998 177.234 776.761 176.967C775.524 176.701 774.362 176.162 773.36 175.389C771.98 174.249 770.97 172.539 769.44 171.649C767.91 170.759 766.31 170.809 764.8 170.199C763.838 169.79 762.982 169.166 762.297 168.376C761.612 167.585 761.117 166.649 760.849 165.638C760.581 164.628 760.547 163.569 760.75 162.543C760.953 161.517 761.387 160.551 762.02 159.719C763.02 158.519 764.5 157.839 765.39 156.509C766.54 154.789 766.44 152.429 766.99 150.369C767.316 149.066 767.947 147.859 768.833 146.848C769.718 145.838 770.831 145.053 772.08 144.559C773.292 144.147 774.592 144.069 775.844 144.331C777.096 144.593 778.255 145.186 779.2 146.049C780.2 146.949 781 148.109 781.98 149.049C782.948 149.975 784.132 150.644 785.425 150.993C786.718 151.342 788.078 151.362 789.38 151.049" fill="#3F3D56"/>
<path opacity="0.1" d="M801.761 298.549C801.178 299.067 800.766 299.749 800.577 300.505C800.388 301.261 800.431 302.057 800.701 302.789C800.921 303.259 811.241 301.269 812.331 301.119C815.051 300.729 819.821 300.919 821.651 298.429C824.911 294.019 814.811 294.999 812.961 295.159C809.441 295.459 804.441 295.939 801.761 298.549Z" fill="black"/>
<path d="M707.88 169.549C707.439 171.521 707.185 173.529 707.12 175.549C704.12 176.159 701 175.159 698.12 174.159L689.85 171.339C689.347 171.017 688.741 170.9 688.154 171.009C687.567 171.119 687.043 171.448 686.69 171.929C685.36 173.309 683.53 175.929 681.69 177.479C681.394 177.448 681.102 177.384 680.82 177.289C679.43 176.709 679.64 174.559 680.64 173.429C681.64 172.299 683.12 171.669 684.03 170.429C684.454 169.693 684.928 168.988 685.45 168.319C686.12 167.745 686.92 167.343 687.78 167.149C693.549 165.449 699.65 165.219 705.53 166.479C706.53 166.699 707.67 167.099 707.97 168.069C708.068 168.562 708.037 169.071 707.88 169.549Z" fill="#3F3D56"/>
<path opacity="0.1" d="M707.88 169.549C707.439 171.521 707.185 173.529 707.12 175.549C704.12 176.159 701 175.159 698.12 174.159L689.85 171.339C689.347 171.017 688.741 170.9 688.154 171.009C687.567 171.119 687.043 171.448 686.69 171.929C685.36 173.309 683.53 175.929 681.69 177.479C681.394 177.448 681.102 177.384 680.82 177.289C679.43 176.709 679.64 174.559 680.64 173.429C681.64 172.299 683.12 171.669 684.03 170.429C684.454 169.693 684.928 168.988 685.45 168.319C686.12 167.745 686.92 167.343 687.78 167.149C693.549 165.449 699.65 165.219 705.53 166.479C706.53 166.699 707.67 167.099 707.97 168.069C708.068 168.562 708.037 169.071 707.88 169.549Z" fill="black"/>
<path opacity="0.1" d="M783.531 359.398C784.971 359.878 786.53 360.578 787.02 362.018L775.44 359.078L769.44 357.548C768.38 357.278 764.58 356.968 763.88 356.138C762.88 354.918 766.43 355.758 767.07 355.848C769.01 356.138 770.95 356.438 772.88 356.788C776.52 357.438 780.021 358.508 783.531 359.398Z" fill="black"/>
<path opacity="0.1" d="M788.02 369.648C787.02 368.978 784.15 369.058 782.92 368.768C781.12 368.338 779.35 367.768 777.58 367.218C773.99 366.048 770.43 364.718 766.74 363.858C766.06 363.708 763.74 363.668 763.85 362.808C763.96 361.948 766.17 361.648 766.72 361.608C769.99 361.368 774.07 362.898 777.11 363.988C780.985 365.376 784.655 367.28 788.02 369.648Z" fill="black"/>
<path opacity="0.1" d="M780.68 350.259C777.01 349.259 773.68 346.979 769.9 346.539C768.915 346.576 767.946 346.28 767.15 345.699C766.706 345.262 766.397 344.706 766.26 344.099C768.79 343.969 771.73 345.039 774.03 346.049C775.296 346.592 776.514 347.241 777.67 347.989C778.51 348.499 779.77 349.969 780.68 350.259Z" fill="black"/>
<path d="M850.64 260.719C850.02 264.876 850.918 269.118 853.169 272.668C855.42 276.218 858.875 278.838 862.9 280.049C862.41 282.419 859.96 283.729 858.23 285.419C855.79 287.789 854.53 291.339 851.65 293.139C848.44 295.139 844.31 294.359 840.65 293.519C840.317 293.482 840.011 293.321 839.79 293.069C839.715 292.949 839.661 292.817 839.63 292.679C838.42 288.249 837.63 283.519 838.87 279.079C839.87 275.299 842.27 272.079 844.19 268.739C846.11 265.399 846.29 261.819 850.64 260.719Z" fill="#3F3D56"/>
<path d="M761.23 203.379C757.36 203.661 753.601 204.805 750.23 206.729C747.99 208.009 745.69 209.729 743.13 209.419C741.62 209.249 740.13 208.419 738.66 208.819C737.832 209.153 737.06 209.612 736.37 210.179C736.021 210.458 735.605 210.641 735.163 210.711C734.721 210.781 734.269 210.736 733.85 210.579L732.85 224.419C732.47 229.679 732.1 235.049 733.36 240.179C734.01 242.799 735.44 245.179 735.6 247.839C735.76 250.499 735.52 253.229 735.71 255.919C735.89 258.409 736.44 260.859 736.58 263.349C736.86 268.049 735.7 272.709 734.58 277.279C732.89 284.019 731.87 290.909 728.58 297.009C727.66 298.699 726.58 300.419 726.58 302.339C726.58 302.579 726.58 302.809 726.64 303.039C725.64 303.589 724.71 304.109 723.86 304.649C721.96 305.879 719.93 307.249 719.15 309.379C718.52 311.109 718.81 313.089 718.05 314.759C717.29 316.429 715.55 317.619 715.17 319.419C714.9 320.729 715.42 322.109 715.17 323.419C714.944 324.097 714.76 324.788 714.62 325.489C714.52 326.989 715.79 328.199 717.05 329.019C718.888 330.23 720.916 331.123 723.05 331.659L729.02 307.959C734.463 297.895 738.992 287.363 742.55 276.489C743.568 272.935 744.876 269.47 746.46 266.129C747.592 264.239 748.595 262.275 749.46 260.249C750.37 257.729 750.46 254.999 750.9 252.339C751.423 249.234 752.209 246.18 753.25 243.209C754.33 239.999 755.58 236.799 755.8 233.429C756.13 228.609 754.38 223.519 756.24 219.059C757.03 217.39 758.057 215.844 759.29 214.469C761.87 211.309 764.22 207.999 766.8 204.839C765.46 203.409 763.23 203.259 761.23 203.379Z" fill="#3F3D56"/>
<g opacity="0.1">
<path opacity="0.1" d="M789.411 148.069L788.161 148.159L788.021 148.259C788.489 148.24 788.954 148.176 789.411 148.069Z" fill="black"/>
<path opacity="0.1" d="M812.29 168.829C812.082 170.817 811.652 172.776 811.01 174.669C810.597 175.818 810.263 176.994 810.01 178.189C809.81 179.349 809.79 180.529 809.61 181.689C809.389 183.193 808.869 184.638 808.08 185.938C807.292 187.238 806.252 188.367 805.02 189.259C804.67 189.545 804.233 189.703 803.78 189.709C803 189.619 802.52 188.709 802.23 187.889C800.64 183.299 801.02 177.689 798.09 174.029C796.758 172.552 795.147 171.353 793.35 170.499C792.618 170.026 791.793 169.716 790.93 169.589C789.662 169.657 788.443 170.103 787.43 170.869C785.32 172.285 782.978 173.32 780.51 173.929C779.279 174.221 777.998 174.234 776.761 173.967C775.524 173.701 774.363 173.162 773.36 172.389C771.98 171.249 770.97 169.539 769.44 168.649C767.91 167.759 766.31 167.809 764.8 167.199C763.857 166.796 763.017 166.186 762.342 165.414C761.667 164.642 761.174 163.727 760.9 162.739C760.865 162.614 760.839 162.487 760.82 162.359C760.571 163.475 760.598 164.636 760.9 165.739C761.174 166.727 761.667 167.642 762.342 168.414C763.017 169.186 763.857 169.796 764.8 170.199C766.31 170.809 768.01 170.819 769.44 171.649C770.87 172.479 771.98 174.249 773.36 175.389C774.363 176.162 775.524 176.701 776.761 176.967C777.998 177.234 779.279 177.221 780.51 176.929C782.978 176.32 785.32 175.285 787.43 173.869C788.443 173.103 789.662 172.657 790.93 172.589C791.793 172.716 792.618 173.026 793.35 173.499C795.124 174.37 796.711 175.579 798.02 177.059C800.95 180.719 800.57 186.329 802.16 190.919C802.45 191.749 802.93 192.649 803.71 192.739C804.191 192.741 804.656 192.571 805.02 192.259C806.257 191.364 807.301 190.231 808.091 188.925C808.881 187.62 809.401 186.169 809.62 184.659C809.8 183.499 809.82 182.319 810.02 181.159C810.273 179.964 810.607 178.788 811.02 177.639C811.995 174.946 812.446 172.091 812.35 169.229C812.33 169.109 812.31 168.969 812.29 168.829Z" fill="black"/>
</g>
<path d="M749.021 249.068L748.341 258.198C748.241 259.438 745.87 288.958 728.391 323.458C713.391 353.048 684.201 391.588 629.091 413.248C624.791 414.948 620.327 416.535 615.701 418.008L610.541 401.808C623.495 397.732 635.973 392.274 647.76 385.528C675.85 369.308 697.691 346.158 712.921 316.368C721.001 300.508 726.76 283.568 730.021 266.068H667.32V249.068H749.021Z" fill="#FFC800"/>
<path opacity="0.1" d="M622.34 413.258C677.44 391.598 706.64 353.068 721.63 323.478C739.11 288.978 741.49 259.478 741.58 258.218L742.26 249.088H749.26L748.58 258.218C748.49 259.458 746.11 288.978 728.63 323.478C713.63 353.068 684.44 391.598 629.34 413.258C625.04 414.958 620.574 416.548 615.94 418.028L615.26 415.898C617.674 415.038 620.034 414.158 622.34 413.258Z" fill="#8C0000"/>
<path d="M512.021 401.808L506.861 418.008C502.227 416.528 497.761 414.938 493.461 413.238C438.361 391.578 409.161 353.048 394.171 323.458C376.691 288.958 374.311 259.458 374.221 258.198L373.541 249.068H455.201V266.068H392.491C395.769 283.57 401.544 300.51 409.641 316.368C424.871 346.158 446.701 369.308 474.791 385.518C486.579 392.271 499.061 397.732 512.021 401.808Z" fill="#FFC800"/>
<path opacity="0.1" d="M500.2 413.258C445.1 391.598 415.9 353.068 400.91 323.478C383.43 288.978 381.05 259.478 380.96 258.218L380.28 249.088H373.28L373.96 258.218C374.05 259.458 376.43 288.978 393.91 323.478C408.91 353.068 438.1 391.598 493.2 413.258C497.5 414.958 501.967 416.548 506.6 418.028L507.28 415.898C504.874 415.038 502.514 414.158 500.2 413.258Z" fill="#8C0000"/>
<g style="mix-blend-mode:multiply" opacity="0.4">
<path d="M665 647.515C665 652.226 618.471 656.372 561.035 656.938C503.599 657.503 457.035 654.158 457 649.494C456.965 644.829 503.529 640.683 560.965 640.071C618.401 639.458 664.965 642.898 665 647.515Z" fill="#B0AFFD"/>
</g>
<path d="M655.61 558.408V650.078H466.94V558.408L472.94 550.408C534.08 528.708 546.47 472.118 548.94 449.728C549.308 446.634 549.518 443.524 549.57 440.408H572.9C572.953 443.524 573.163 446.634 573.53 449.728C576.04 472.118 588.43 528.728 649.53 550.408L655.61 558.408Z" fill="#FFC800"/>
<path opacity="0.1" d="M655.61 558.408H466.94V569.908H655.61V558.408Z" fill="#3F3D56"/>
<path opacity="0.1" d="M482.94 550.408C544.08 528.708 556.47 472.118 558.94 449.728C559.308 446.634 559.518 443.524 559.57 440.408H549.57C549.518 443.524 549.308 446.634 548.94 449.728C546.43 472.118 534.04 528.728 472.94 550.408L466.94 558.408V650.078H476.94V558.408L482.94 550.408Z" fill="white"/>
<path opacity="0.1" d="M438.28 249.068H455.2V266.068H439.78C439.174 260.468 438.674 254.802 438.28 249.068Z" fill="black"/>
<path opacity="0.1" d="M512.021 401.809L506.861 418.009C502.227 416.529 497.761 414.939 493.461 413.239C486.387 404.6 480.137 395.32 474.791 385.519C486.579 392.271 499.061 397.732 512.021 401.809Z" fill="black"/>
<path opacity="0.1" d="M610.53 401.808C623.485 397.732 635.963 392.273 647.75 385.528C642.401 395.331 636.151 404.615 629.08 413.258C624.78 414.958 620.317 416.545 615.69 418.018L610.53 401.808Z" fill="black"/>
<path opacity="0.1" d="M684.261 249.068C683.867 254.802 683.367 260.468 682.761 266.068H667.351V249.068H684.261Z" fill="black"/>
<path opacity="0.1" d="M573.57 449.728C565.449 451.302 557.102 451.302 548.98 449.728C549.348 446.634 549.558 443.524 549.61 440.408H572.94C572.993 443.524 573.203 446.634 573.57 449.728Z" fill="black"/>
<path d="M440.28 220.909C440.71 346.969 494.71 448.909 561.28 448.909C627.85 448.909 681.84 346.969 682.28 220.909H440.28Z" fill="#FFD700"/>
<path opacity="0.1" d="M461.78 220.909H440.28C440.71 346.969 494.71 448.909 561.28 448.909C564.883 448.903 568.478 448.598 572.03 447.999C510.49 437.719 462.19 340.109 461.78 220.909Z" fill="white"/>
<path d="M625.44 593.498H497.11V626.498H625.44V593.498Z" fill="#3F3D56"/>
<path opacity="0.1" d="M503.11 597.998H625.44V593.498H497.11V626.498H503.11V597.998Z" fill="white"/>
<path d="M371.84 342.619C369.53 341.849 355.93 331.089 354.9 326.219C353.87 321.349 362.09 275.979 362.09 275.979C362.09 275.979 361.33 275.979 360.09 275.829V275.099L361.78 215.499C361.78 215.499 368.71 175.499 355.62 177.829C342.53 180.159 350.74 215.499 350.74 215.499C350.74 215.499 349.25 233.439 348.2 238.819C347.2 244.009 342.62 265.149 345.74 271.719C345.855 271.952 345.982 272.179 346.12 272.399C346.12 272.399 346.64 294.949 340.99 298.029C335.6 300.959 333.36 315.709 333.17 317.029L332.88 316.909C331.271 315.902 329.858 314.611 328.71 313.099C328.59 312.949 328.5 312.789 328.39 312.629C332.07 308.49 334.053 303.115 333.943 297.578C333.834 292.042 331.64 286.75 327.8 282.759C326.015 280.904 323.92 279.375 321.61 278.239C321.543 276.328 321.091 274.451 320.28 272.719C317.68 267.159 303.28 259.889 293.05 259.719C288.33 259.579 284.46 260.919 283.05 264.609C282.33 266.479 282.55 268.609 282.25 270.549C281.65 274.549 279.08 277.679 275.78 280.169C274.448 278.681 273.007 277.294 271.47 276.019C268.13 273.459 261.47 265.019 261.47 265.019C261.47 265.019 240.68 243.489 239.14 237.589C237.6 231.689 216.83 196.259 212.21 202.429C207.59 208.599 228.12 235.489 228.12 235.489C228.12 235.489 232.02 245.259 235.02 248.559C238.02 251.859 261.02 285.259 261.02 285.259L262.12 287.539C257.26 290.099 252.82 293.359 251.25 298.439C248.95 305.919 253.98 313.439 257.46 320.439C264.24 334.099 265.21 351.519 256.46 363.999C248.62 375.019 235.02 380.259 222.29 384.839C228.438 389.667 236.076 392.202 243.89 392.009C240.95 400.529 230.53 403.349 221.65 404.929C226.31 409.409 232.98 411.039 239.38 412.029C242.515 412.562 245.691 412.813 248.87 412.779H249.65L250.43 412.719C251.514 412.647 252.593 412.51 253.66 412.309C258.28 411.369 262.77 408.849 265.13 404.769C267.13 401.279 267.83 396.519 271.46 394.769C272.406 394.342 273.424 394.101 274.46 394.059H274.35C275.03 394.059 275.73 394.059 276.41 394.059L291.54 394.209C292.17 394.209 292.82 394.209 293.47 394.209C297.74 394.109 302.3 393.369 304.47 389.839C305.363 388.125 305.833 386.222 305.84 384.289C306.16 379.499 305.84 374.569 305.97 369.739C307.26 378.529 308.61 392.229 305.4 397.289C302.793 401.123 299.632 404.55 296.02 407.459C295.112 408.222 294.281 409.073 293.54 409.999C293.05 410.349 292.76 410.539 292.76 410.539L292.45 411.469C291.311 413.198 290.485 415.113 290.01 417.129C289.836 417.647 289.771 418.195 289.82 418.739C290.17 419.449 287.32 422.379 288.15 423.609C281.03 431.959 279.68 444.609 279.68 444.609L266.68 464.349C260 481.899 250 483.699 250 483.699C250 483.699 226.51 467.939 225.87 467.169C225.23 466.399 216.25 462.549 216.25 462.549C215.192 460.692 213.575 459.216 211.63 458.329C208.55 457.049 208.29 452.329 208.29 452.329C207.91 441.179 201.36 440.329 201.36 440.329C196.08 439.879 192.05 440.819 188.95 442.539L188.01 442.609C183.47 442.979 178.01 443.389 172.01 443.789C155.32 444.889 151.35 455.699 151.35 455.699C151.35 455.699 149.3 458.009 151.99 460.509C154.68 463.009 171.9 460.509 172.63 460.449C171.318 460.591 169.991 460.5 168.71 460.179C171.42 460.079 175.15 459.979 178.33 459.979H179.1C178.9 461.665 178.803 463.361 178.81 465.059C178.81 468.259 187.66 470.309 187.66 470.309L214.61 494.309C214.61 494.309 231.55 501.879 242.33 512.769C253.11 523.659 262.64 514.259 262.64 514.259C274.05 511.439 306.88 471.749 306.91 471.709C306.91 472.869 307.6 511.469 308.91 519.219C308.963 519.612 309.06 519.998 309.2 520.369C310.74 523.699 308.68 532.799 307.79 536.639C307.223 539.853 307.005 543.118 307.14 546.379C307.14 546.379 294.83 593.379 295.85 597.509C296.87 601.639 289.18 620.829 289.18 620.829V636.829L290.52 636.759C290.346 637.017 290.186 637.284 290.04 637.559L289.95 637.729C289.95 637.729 298.16 639.519 303.68 639.009C309.2 638.499 318.68 643.259 318.68 643.259C318.68 643.259 321.89 644.779 331.77 645.419C341.65 646.059 341.65 641.059 341.65 641.059C340.52 634.249 324.91 631.969 324.43 631.899C323.17 631.109 321.99 630.249 321.02 629.509L320.82 629.349C320.886 629.199 320.943 629.045 320.99 628.889C322.66 622.089 313.42 619.139 313.42 619.139V617.479C319.42 614.399 320.61 593.259 320.61 593.259C320.61 593.259 329.61 567.119 330.87 562.759C332.13 558.399 330.87 551.869 330.87 551.869L331.77 546.229C331.77 546.229 333.7 542.389 333.7 541.619C333.95 539.667 334.701 537.814 335.88 536.239C337.29 534.569 334.34 530.599 334.34 530.599L336.91 523.939V516.629L342.91 490.109C342.91 490.109 349.2 459.219 347.02 449.109C344.84 438.999 349.59 433.859 349.59 433.859C349.162 434.084 348.722 434.284 348.27 434.459C348.871 433.071 349.389 431.648 349.82 430.199L363.32 431.869V432.069H368.19C368.19 432.069 366.65 413.069 366.65 405.409C366.65 397.749 371.84 370.259 371.84 370.259C371.84 370.259 374.15 343.389 371.84 342.619ZM311.91 320.439C311.91 321.189 311.84 321.969 311.79 322.769L311.52 323.179L311.02 322.759L310.41 323.709L310.23 323.799C308.91 323.119 308.23 319.229 307.28 320.069L307.15 320.179C306.94 319.939 306.73 319.869 306.51 320.069L306.31 320.239C306.31 319.949 306.31 319.649 306.31 319.349C308.14 319.82 310.021 320.058 311.91 320.059C311.92 320.189 311.91 320.319 311.91 320.439ZM356.81 408.919H357.1L356.62 410.179C356.68 409.759 356.74 409.349 356.81 408.919ZM307.52 635.689L305.68 635.229L306.68 635.059L307.61 635.669L307.72 635.749L307.52 635.689ZM326.32 632.999C325.71 632.679 325.09 632.309 324.49 631.929C324.69 632.039 325.48 632.449 326.32 632.999Z" fill="url(#paint1_linear)"/>
<path d="M363.451 390.028L351.341 421.588H354.281L342.891 430.668L363.451 433.228V390.028Z" fill="#F86D70"/>
<path opacity="0.1" d="M363.451 390.028L351.341 421.588L348.291 420.768L342.891 430.668L363.451 433.228V390.028Z" fill="black"/>
<path d="M344.46 410.218H363.45L370.42 352.868H344.46V410.218Z" fill="#F86D70"/>
<path opacity="0.1" d="M344.46 410.218H363.45L370.42 352.868H344.46V410.218Z" fill="black"/>
<path d="M307.37 366.449L311.47 365.759L320.89 364.159C320.89 364.159 349.18 357.779 355.02 357.259C358.558 356.792 362.008 355.808 365.26 354.339C366.79 353.679 367.76 353.179 367.76 353.179L357.57 334.569L341.76 322.849C341.76 322.849 331.76 320.719 327.53 314.899C326.586 313.646 325.972 312.177 325.743 310.626C325.514 309.074 325.678 307.49 326.22 306.019C328.8 298.019 310.81 313.669 310.81 313.669C310.81 313.669 310.98 317.419 310.81 322.199C310.81 323.139 310.72 324.119 310.65 325.119C310.65 325.779 310.56 326.439 310.49 327.119C310.05 331.869 309.15 336.759 307.37 339.679C303.02 346.819 307.37 366.449 307.37 366.449Z" fill="#FBBEBE"/>
<path opacity="0.1" d="M310.811 322.599H311.211C311.931 322.599 312.511 321.069 313.211 320.999C318.841 320.459 323.981 319.279 327.551 315.289C326.609 314.037 325.996 312.57 325.767 311.02C325.538 309.471 325.701 307.889 326.241 306.419C328.821 298.419 310.831 314.059 310.831 314.059C310.831 314.059 311.021 317.819 310.811 322.599Z" fill="black"/>
<path d="M288.911 299.919C288.909 302.798 289.475 305.649 290.577 308.309C291.678 310.969 293.292 313.386 295.328 315.421C297.364 317.457 299.781 319.072 302.441 320.173C305.101 321.274 307.952 321.84 310.831 321.839C311.551 321.839 312.261 321.839 312.971 321.739C317.194 321.324 321.207 319.693 324.521 317.042C327.836 314.392 330.309 310.836 331.642 306.807C332.975 302.777 333.109 298.448 332.029 294.344C330.948 290.24 328.7 286.537 325.556 283.686C322.412 280.835 318.509 278.958 314.319 278.283C310.129 277.607 305.833 278.163 301.953 279.882C298.073 281.6 294.775 284.409 292.46 287.966C290.144 291.522 288.912 295.675 288.911 299.919Z" fill="#FBBEBE"/>
<path d="M282.18 266.649C281.46 268.509 281.68 270.589 281.39 272.559C280.32 279.669 273.09 283.929 266.55 286.909C260.01 289.889 252.63 293.419 250.55 300.289C248.27 307.719 253.25 315.169 256.71 322.139C263.45 335.719 264.41 353.039 255.71 365.459C247.98 376.459 234.51 381.679 221.83 386.259C227.933 391.06 235.518 393.584 243.28 393.399C240.37 401.869 230.02 404.679 221.2 406.239C225.83 410.699 232.46 412.319 238.81 413.299C243.44 414.019 248.19 414.489 252.81 413.559C257.43 412.629 261.81 410.119 264.19 406.059C266.19 402.589 266.87 397.859 270.48 396.109C272.11 395.467 273.865 395.211 275.61 395.359L290.61 395.519C295.28 395.519 300.81 395.159 303.22 391.169C304.109 389.464 304.576 387.571 304.58 385.649C305.23 375.809 303.34 365.409 307.39 356.429C308.61 353.719 300.78 349.429 301.6 346.559C304.42 336.689 305.13 328.919 305.1 318.649C305.1 310.699 310.27 303.849 314.54 297.139C318.81 290.429 322.38 281.959 319.01 274.759C315.21 266.729 286.67 255.059 282.18 266.649Z" fill="#3F3D56"/>
<path d="M302.15 632.808L305.97 635.338L306.56 635.728L306.67 635.798L311.2 638.798L321.78 640.578L331.08 639.938C331.08 639.938 333.76 634.338 329.55 634.468C328.202 634.399 326.888 634.019 325.71 633.358L325.13 633.068C324.52 632.748 323.91 632.388 323.31 632.008C322.06 631.218 320.88 630.358 319.93 629.628C318.53 628.548 317.6 627.728 317.6 627.728L302.15 632.808Z" fill="#FBBEBE"/>
<path opacity="0.1" d="M306.021 635.338L306.611 635.728L306.721 635.798L311.251 638.798L321.831 640.578L331.13 639.938C331.13 639.938 333.81 634.338 329.6 634.468C328.252 634.399 326.938 634.019 325.76 633.358C326.5 633.938 327.121 634.568 327.181 635.098C327.351 636.528 320.301 639.098 320.301 639.098L310.361 636.468C310.361 636.468 308.671 635.988 306.361 635.388L306.141 635.328L306.021 635.338Z" fill="black"/>
<path d="M289.021 637.778C289.021 637.778 297.171 639.558 302.651 639.048C308.131 638.538 317.57 643.258 317.57 643.258C317.57 643.258 320.76 644.758 330.57 645.398C340.38 646.038 340.38 641.058 340.38 641.058C339.26 634.288 323.761 632.058 323.281 631.958C323.471 632.058 324.28 632.468 325.1 633.018C326.2 633.738 327.39 634.678 327.48 635.438C327.65 636.858 320.6 639.438 320.6 639.438L310.661 636.818C310.661 636.818 308.971 636.328 306.661 635.728H306.441C303.015 634.795 299.535 634.077 296.021 633.578C291.741 633.118 289.55 636.758 289.1 637.578C289.068 637.642 289.041 637.709 289.021 637.778Z" fill="#3F3D56"/>
<path d="M160.561 457.948L164.891 461.268C164.891 461.268 166.151 461.208 168.031 461.148H168.631C171.321 461.048 175.031 460.948 178.181 460.948C180.217 460.856 182.257 460.97 184.271 461.288C186.431 462.048 190.271 448.928 190.271 448.928L185.931 447.928L184.491 447.588L183.491 447.348L179.961 446.518L169.261 447.738L161.741 452.578L160.561 457.948Z" fill="#FBBEBE"/>
<path opacity="0.1" d="M160.561 457.948L164.891 461.268C164.891 461.268 166.151 461.208 168.031 461.148C167.168 460.815 166.457 460.179 166.031 459.358C163.231 451.588 177.121 448.268 177.121 448.268L183.591 447.988L184.851 447.928H185.851L184.411 447.588L183.411 447.348L179.881 446.518L169.181 447.738L161.661 452.578L160.561 457.948Z" fill="black"/>
<path d="M152.021 461.458C154.641 463.878 171.801 461.458 172.521 461.398C171.218 461.545 169.9 461.453 168.631 461.128C168.002 461.016 167.406 460.764 166.887 460.392C166.368 460.02 165.939 459.537 165.631 458.978C162.831 451.198 176.721 447.888 176.721 447.888L183.191 447.608L184.441 447.548L200.171 446.868L200.931 442.538C200.931 442.538 195.821 443.018 187.801 443.658C183.291 444.028 177.801 444.438 171.871 444.828C155.301 445.928 151.361 456.678 151.361 456.678C151.361 456.678 149.351 458.978 152.021 461.458Z" fill="#3F3D56"/>
<path d="M344.47 273.759C344.577 273.997 344.704 274.224 344.85 274.439L348.67 280.039L358.61 281.039L358.72 277.099L360.39 217.819C360.39 217.819 367.27 178.059 354.27 180.349C341.27 182.639 349.43 217.819 349.43 217.819C349.43 217.819 347.951 235.659 346.911 241.019C345.901 246.199 341.37 267.259 344.47 273.759Z" fill="#FBBEBE"/>
<path d="M322.161 420.998L324.991 425.838L331.321 436.668C331.321 436.668 342.801 440.878 345.741 437.668C347.351 435.918 349.091 429.808 350.311 424.668C351.311 420.508 351.981 416.998 351.981 416.998L322.161 420.998Z" fill="#FBBEBE"/>
<path opacity="0.1" d="M322.161 420.998L324.991 425.838C325.168 425.685 325.329 425.514 325.471 425.328C328.671 421.248 342.761 424.458 350.311 424.718C351.311 420.558 351.981 417.048 351.981 417.048L322.161 420.998Z" fill="black"/>
<path opacity="0.1" d="M178.18 460.928C180.216 460.836 182.257 460.95 184.27 461.268C186.43 462.028 190.27 448.908 190.27 448.908L184.49 447.548L200.22 446.868L200.98 442.538C200.98 442.538 195.87 443.018 187.85 443.658C186.193 444.612 184.714 445.847 183.48 447.308L183.24 447.608C179.89 451.718 178.65 457.018 178.18 460.928Z" fill="black"/>
<path opacity="0.1" d="M302.15 632.808L306.56 635.728C313.14 634.538 319.15 632.668 319.86 629.728C319.864 629.681 319.864 629.635 319.86 629.588C318.46 628.508 317.53 627.688 317.53 627.688L302.15 632.808Z" fill="black"/>
<path opacity="0.1" d="M289.11 637.608C294.921 637.319 300.711 636.698 306.45 635.748C303.022 634.808 299.539 634.083 296.02 633.578C291.75 633.118 289.56 636.758 289.11 637.608Z" fill="black"/>
<path d="M178.66 465.978C178.66 469.168 187.45 471.208 187.45 471.208L214.22 495.038C214.22 495.038 231.04 502.558 241.74 513.388C252.44 524.218 261.88 514.918 261.88 514.918C273.22 512.118 305.88 472.608 305.88 472.608C305.88 472.608 306.64 517.728 308.17 521.038C309.7 524.348 307.66 533.398 306.77 537.228C306.209 540.422 305.994 543.668 306.13 546.908C306.13 546.908 293.9 593.678 294.92 597.758C295.94 601.838 288.29 620.958 288.29 620.958V636.888C288.29 636.888 318.24 635.738 319.89 628.988C321.54 622.238 312.38 619.298 312.38 619.298V617.638C318.38 614.578 319.51 593.558 319.51 593.558C319.51 593.558 328.44 567.558 329.71 563.228C330.98 558.898 329.71 552.388 329.71 552.388L330.6 546.788C330.6 546.788 332.51 542.958 332.51 542.198C332.76 540.257 333.507 538.414 334.68 536.848C336.08 535.188 333.15 531.238 333.15 531.238L335.7 524.608V517.348L341.7 490.968C341.7 490.968 347.95 460.248 345.78 450.178C343.61 440.108 348.33 435.018 348.33 435.018C338.1 440.378 332.94 428.448 331.25 423.318C330.82 421.998 330.61 421.118 330.61 421.118C330.61 421.118 316.56 415.938 303.48 417.178C300.824 417.393 298.206 417.948 295.69 418.828C281.16 424.058 278.87 445.718 278.87 445.718L266 465.348C259.37 482.808 249.43 484.588 249.43 484.588C249.43 484.588 226.11 468.918 225.43 468.148C224.75 467.378 215.87 463.558 215.87 463.558C214.82 461.71 213.214 460.24 211.28 459.358C208.22 458.078 207.97 453.358 207.97 453.358C207.59 442.268 201.09 441.358 201.09 441.358C178.53 439.478 178.66 462.798 178.66 465.978Z" fill="#3F3D56"/>
<path d="M308.4 403.668H322.16V360.978H308.4V403.668Z" fill="#F86D70"/>
<path opacity="0.1" d="M308.4 403.668H322.16V360.978H308.4V403.668Z" fill="black"/>
<path opacity="0.1" d="M344.461 273.668C344.458 273.698 344.458 273.728 344.461 273.758C344.567 273.996 344.694 274.223 344.841 274.438L348.661 280.038L358.601 281.038L358.711 277.098C355.611 276.858 348.551 276.008 344.461 273.668Z" fill="black"/>
<path d="M344.85 274.438C344.85 274.438 345.36 296.858 339.75 299.918C334.14 302.978 331.96 318.918 331.96 318.918C331.96 318.918 348.96 330.098 352.75 335.018C356.54 339.938 365.24 351.658 363.45 354.458C361.66 357.258 367.79 370.008 367.79 370.008C367.79 370.008 356.57 392.948 359.12 401.618C361.67 410.288 361.92 433.219 361.92 433.219H366.77C366.77 433.219 365.24 414.358 365.24 406.708C365.24 399.058 370.33 371.788 370.33 371.788C370.33 371.788 372.63 345.028 370.33 344.268C368.03 343.508 354.53 332.798 353.51 327.948C352.49 323.098 360.65 277.948 360.65 277.948C360.65 277.948 350.2 277.498 344.85 274.438Z" fill="#F86D70"/>
<path opacity="0.1" d="M308.141 357.018C308.606 360.138 309.742 363.12 311.471 365.758L320.891 364.158C320.891 364.158 349.181 357.778 355.021 357.258C358.558 356.791 362.009 355.808 365.261 354.338C363.019 346.396 358.644 339.219 352.611 333.588L349.021 330.258C343.73 325.347 337.599 321.428 330.921 318.688C331.341 319.038 361.021 344.378 354.521 349.348C348.021 354.318 330.521 342.218 330.521 342.218L310.621 325.118L309.901 324.498L308.751 326.288C309.336 326.529 309.907 326.803 310.461 327.108C317.243 330.831 322.276 337.087 324.461 344.508C328.551 358.258 308.141 357.018 308.141 357.018Z" fill="black"/>
<path d="M302.021 420.738C302.021 420.738 320.881 431.188 325.461 425.328C326.461 424.038 328.57 423.478 331.201 423.328C330.771 422.008 330.561 421.128 330.561 421.128C330.561 421.128 316.511 415.948 303.431 417.188C302.571 419.348 302.021 420.738 302.021 420.738Z" fill="#444053"/>
<path d="M310.701 324.519L331.32 342.259C331.32 342.259 348.75 354.399 355.32 349.389C361.89 344.379 331.711 318.719 331.711 318.719C338.375 321.466 344.5 325.373 349.801 330.259L353.391 333.589C362.831 342.339 364.961 342.339 365.281 355.199C365.361 358.369 364.281 362.919 363.451 363.739C360.39 366.739 358.251 388.529 358.721 391.079C359.191 393.629 353.021 415.639 355.021 421.759C357.021 427.879 330.021 418.699 325.451 424.569C320.881 430.439 302.021 419.979 302.021 419.979C302.021 419.979 312.471 393.209 315.021 391.429C317.571 389.649 320.631 375.879 315.021 369.509C309.411 363.139 308.911 357.019 308.911 357.019C308.911 357.019 329.311 358.279 325.221 344.529C324.07 340.543 322.074 336.853 319.368 333.709C316.662 330.564 313.31 328.04 309.54 326.309L310.701 324.519Z" fill="#E8E8F0"/>
<path opacity="0.1" d="M338.22 369.639C338.22 369.639 330.31 384.549 320.08 388.419C319.75 388.539 319.43 388.649 319.08 388.749C308.4 391.999 339.02 374.259 338.22 369.639Z" fill="black"/>
<path d="M227.6 237.729C227.6 237.729 231.42 247.419 234.48 250.729C237.54 254.039 260.22 287.179 260.22 287.179L262.14 291.179L263.79 294.589L278.32 293.059L279.32 287.199L278.76 286.519C277.3 284.769 273.32 280.069 270.65 278.019C267.34 275.479 260.71 267.069 260.71 267.069C260.71 267.069 240.07 245.649 238.54 239.789C237.01 233.929 216.36 198.789 211.78 204.869C207.2 210.949 227.6 237.729 227.6 237.729Z" fill="#FBBEBE"/>
<g opacity="0.1">
<path opacity="0.1" d="M269.76 395.359C268.016 395.208 266.261 395.461 264.63 396.099C261.03 397.849 260.35 402.579 258.35 406.049C256.01 410.109 251.55 412.619 246.96 413.549C246.048 413.726 245.126 413.853 244.2 413.929C247.124 414.213 250.072 414.085 252.96 413.549C257.55 412.619 262.01 410.109 264.35 406.049C266.35 402.579 267.03 397.849 270.63 396.099C271.575 395.673 272.594 395.436 273.63 395.399L269.76 395.359Z" fill="black"/>
<path opacity="0.1" d="M305.28 318.649C305.28 310.699 310.45 303.849 314.71 297.139C318.97 290.429 322.55 281.959 319.18 274.759C316.3 268.609 298.94 260.359 288.92 261.989C298.73 263.259 310.82 269.719 313.18 274.759C316.55 281.959 312.97 290.429 308.71 297.139C304.45 303.849 299.26 310.699 299.28 318.649C299.28 328.909 298.59 336.649 295.77 346.559C294.96 349.409 302.77 353.719 301.57 356.419C297.51 365.419 299.41 375.799 298.76 385.639C298.747 387.561 298.277 389.453 297.39 391.159C295.39 394.449 291.29 395.299 287.3 395.479H290.79C295.45 395.479 300.98 395.119 303.39 391.129C304.277 389.423 304.747 387.531 304.76 385.609C305.41 375.769 303.51 365.379 307.57 356.389C308.79 353.689 300.96 349.389 301.77 346.529C304.59 336.689 305.3 328.909 305.28 318.649Z" fill="black"/>
</g>
<path opacity="0.1" d="M262.141 291.159L263.791 294.569L278.321 293.039L279.321 287.179L278.761 286.499C277.211 287.259 265.601 292.849 262.141 291.159Z" fill="black"/>
<path opacity="0.1" d="M315.79 329.489C315.79 329.489 312.22 323.889 310.18 325.409C308.14 326.929 307.35 320.819 306.18 321.839C305.01 322.859 301.6 325.699 300.18 321.729C299.07 318.569 286.99 298.579 282.09 290.539C280.83 288.459 280.04 287.179 280.04 287.179C280.04 287.179 266.28 294.059 262.97 291.769V296.609L265.77 296.869L280.77 324.869C280.77 324.869 285.49 332.379 285.17 334.999C284.85 337.619 291.22 349.089 292.24 349.849C293.26 350.609 304.24 363.359 304.24 363.359C304.24 363.359 309.85 390.889 305 398.539C300.15 406.189 291.75 411.789 291.75 411.789C291.75 411.789 289.22 419.179 289.59 419.949C289.96 420.719 286.65 424.029 288.18 425.049C289.71 426.069 291.75 433.199 291.75 433.199C291.75 433.199 298.89 421.729 302.75 419.949C306.61 418.169 311.55 394.709 311.55 394.709C311.55 394.709 312.96 380.889 313.07 371.969C313.18 363.049 312.73 329.489 315.79 329.489Z" fill="black"/>
<path d="M315.02 329.489C315.02 329.489 311.46 323.889 309.42 325.409C307.38 326.929 306.58 320.819 305.42 321.839C304.26 322.859 300.85 325.699 299.42 321.729C298.3 318.569 286.22 298.579 281.33 290.539L279.28 287.179C279.28 287.179 265.52 294.059 262.2 291.769V296.609L265.01 296.869L280.01 324.869C280.01 324.869 284.74 332.379 284.41 334.999C284.08 337.619 290.41 349.089 291.48 349.849C292.55 350.609 303.48 363.359 303.48 363.359C303.48 363.359 309.09 390.889 304.25 398.539C301.693 402.381 298.583 405.825 295.02 408.759C292.027 411.228 289.921 414.605 289.02 418.379C288.847 418.893 288.785 419.439 288.84 419.979C289.21 420.739 285.9 424.059 287.43 425.079C288.96 426.099 291.02 433.259 291.02 433.259C291.02 433.259 298.16 421.789 302.02 420.009C305.88 418.229 310.83 394.769 310.83 394.769C310.83 394.769 312.23 380.949 312.35 372.029C312.47 363.109 312.02 329.489 315.02 329.489Z" fill="#F86D70"/>
<path opacity="0.1" d="M280.101 445.468C280.101 445.468 290.811 447.468 295.101 450.558C299.391 453.648 278.791 445.718 278.791 445.718L280.101 445.468Z" fill="black"/>
<path opacity="0.1" d="M305.851 472.608C305.851 472.608 317.021 481.918 315.021 490.328C313.021 498.738 307.861 519.898 307.861 519.898L305.851 472.608Z" fill="black"/>
<path opacity="0.1" d="M208.161 454.708C208.161 454.708 192.421 456.428 193.441 458.468C194.461 460.508 208.161 456.588 208.161 456.588V454.708Z" fill="black"/>
<path opacity="0.1" d="M329.02 532.128C329.02 532.128 330.02 533.398 324.18 532.128C318.34 530.858 322.65 526.938 322.65 526.938L329.02 532.128Z" fill="black"/>
<path opacity="0.1" d="M327.02 549.718C327.02 549.718 319.02 550.988 314.73 549.718C310.44 548.448 327.02 549.718 327.02 549.718Z" fill="black"/>
<path opacity="0.1" d="M310.56 618.538C310.56 618.538 309.16 617.008 302.15 619.808C295.14 622.608 292.34 622.738 290.3 621.808C288.26 620.878 310.56 618.538 310.56 618.538Z" fill="black"/>
<path opacity="0.1" d="M318.34 452.538L308.4 466.368C308.4 466.368 313.75 454.258 318.34 452.538Z" fill="black"/>
<path opacity="0.1" d="M299.02 325.408C299.02 325.408 298.59 329.998 292.18 331.788C285.77 333.578 284.55 335.028 284.55 335.028" fill="black"/>
<path opacity="0.1" d="M282.36 292.139C282.36 292.139 273.9 298.139 265.07 296.869L282.36 292.139Z" fill="black"/>
<path opacity="0.1" d="M288.8 420.608C288.8 420.608 291.27 422.158 297.2 415.378L288.8 420.608Z" fill="black"/>
<path opacity="0.1" d="M350.391 348.718C350.631 347.478 349.771 346.328 348.961 345.358L347.301 343.358C346.976 342.949 346.611 342.573 346.211 342.238C345.211 341.468 343.931 341.238 342.891 340.548" fill="black"/>
<path opacity="0.5" d="M887.31 0.109633C887.31 0.109633 803.12 -4.97036 813.02 54.0296C813.02 54.0296 811.02 64.4596 820.5 69.1896C820.5 69.1896 820.65 64.8196 829.14 66.3096C832.163 66.8107 835.234 66.9583 838.29 66.7496C842.42 66.4645 846.344 64.8428 849.47 62.1296C849.47 62.1296 873.14 52.3496 882.34 13.6696C882.34 13.6696 889.15 5.22964 888.88 3.05964L874.67 9.12963C874.67 9.12963 879.53 19.3796 875.67 27.8996C875.67 27.8996 875.21 9.49963 872.48 9.89963C871.93 9.98963 865.1 13.4496 865.1 13.4496C865.1 13.4496 873.45 31.2996 867.15 44.2796C867.15 44.2796 869.54 22.2796 862.49 14.7396L852.49 20.5796C852.49 20.5796 862.25 39.0196 855.63 54.0696C855.63 54.0696 857.33 30.9896 850.38 21.9996L841.32 29.0696C841.32 29.0696 850.49 47.2496 844.9 59.7296C844.9 59.7296 844.17 32.8596 839.36 30.8296C839.36 30.8296 831.43 37.8296 830.22 40.6896C830.22 40.6896 836.5 53.8896 832.6 60.8496C832.6 60.8496 830.21 42.9496 828.25 42.8496C828.25 42.8496 820.35 54.7096 819.53 62.8496C819.53 62.8496 819.87 50.7596 826.34 41.7296C826.34 41.7296 818.7 43.0396 814.24 47.9896C814.24 47.9896 815.47 39.6096 828.29 38.8796C828.29 38.8796 834.82 29.8796 836.56 29.3296C836.56 29.3296 823.82 28.2696 816.09 31.6896C816.09 31.6896 822.89 23.7796 838.9 27.3796L847.85 20.0696C847.85 20.0696 831.07 17.7796 823.95 20.3096C823.95 20.3096 832.14 13.3096 850.26 18.4096L860 12.5896C860 12.5896 845.69 9.50964 837.17 10.5896C837.17 10.5896 846.17 5.73964 862.86 10.9996L869.86 7.86963C869.86 7.86963 859.38 5.80964 856.31 5.47964C853.24 5.14964 853.08 4.30964 853.08 4.30964C859.72 3.20249 866.536 3.96065 872.77 6.49964C872.77 6.49964 887.57 1.03963 887.31 0.109633Z" fill="black"/>
<path opacity="0.5" d="M783.471 15.1196C783.471 15.1196 745.471 12.8196 749.921 39.4796C749.921 39.4796 749.031 44.1996 753.291 46.3396C753.291 46.3396 753.36 44.3396 757.2 45.0296C758.564 45.2592 759.951 45.3263 761.33 45.2296C763.197 45.1028 764.97 44.3688 766.38 43.1396C766.38 43.1396 777.08 38.7296 781.24 21.2496C781.24 21.2496 784.31 17.4296 784.19 16.4496L777.77 19.1896C777.77 19.1896 779.97 23.8296 778.24 27.6796C778.24 27.6796 778.031 19.3596 776.801 19.5596C776.551 19.5596 773.46 21.1596 773.46 21.1596C773.46 21.1596 777.24 29.2296 774.39 35.0996C774.39 35.0996 775.471 25.1596 772.281 21.7496L767.76 24.3896C767.76 24.3896 772.18 32.7196 769.18 39.5196C769.18 39.5196 769.95 29.0896 766.81 25.0296L762.721 28.2596C762.721 28.2596 766.861 36.4796 764.341 42.1096C764.341 42.1096 764.01 29.9696 761.83 29.0596C761.83 29.0596 758.25 32.2196 757.7 33.5196C757.7 33.5196 760.541 39.5196 758.781 42.6196C758.781 42.6196 757.701 34.5296 756.781 34.4996C756.781 34.4996 753.221 39.8596 752.841 43.4996C753.019 40.1026 754.08 36.8108 755.921 33.9496C753.86 34.3399 751.959 35.3235 750.45 36.7796C750.45 36.7796 751.011 32.9996 756.801 32.6596C756.801 32.6596 759.801 28.5996 760.541 28.3496C760.541 28.3496 754.781 27.8696 751.291 29.4196C751.291 29.4196 754.361 25.8396 761.601 27.4196L765.601 24.1196C765.601 24.1196 758.021 23.1196 754.801 24.2296C754.801 24.2296 758.5 21.0696 766.69 23.3696L771.09 20.7396C771.09 20.7396 764.63 19.3396 760.77 19.8496C760.77 19.8496 764.84 17.6496 772.38 20.0296L775.531 18.6196C775.531 18.6196 770.79 17.6796 769.4 17.5396C768.01 17.3996 767.94 17.0096 767.94 17.0096C770.942 16.5102 774.024 16.8565 776.84 18.0096C776.84 18.0096 783.591 15.5396 783.471 15.1196Z" fill="black"/>
<path d="M916.211 650.758C938.418 650.758 956.421 647.714 956.421 643.958C956.421 640.203 938.418 637.158 916.211 637.158C894.003 637.158 876 640.203 876 643.958C876 647.714 894.003 650.758 916.211 650.758Z" fill="#FFC800"/>
<path d="M932.84 632.838C934.676 631.342 936.012 629.323 936.67 627.048C937.17 624.758 936.19 622.048 933.99 621.158C931.53 620.218 928.9 621.928 926.91 623.648C924.92 625.368 922.63 627.338 920.03 626.968C921.37 625.751 922.373 624.208 922.94 622.489C923.508 620.77 923.622 618.934 923.27 617.158C923.157 616.422 922.846 615.731 922.37 615.158C921 613.698 918.53 614.318 916.89 615.468C911.69 619.128 910.24 626.198 910.21 632.548C909.69 630.258 910.13 627.868 910.12 625.548C910.11 623.228 909.46 620.548 907.47 619.318C906.243 618.658 904.863 618.333 903.47 618.378C901.14 618.288 898.53 618.528 896.94 620.238C894.94 622.358 895.47 625.918 897.19 628.238C898.91 630.558 901.54 632.048 903.96 633.658C905.896 634.812 907.547 636.388 908.79 638.268C908.94 638.531 909.061 638.809 909.15 639.098H923.81C927.089 637.428 930.127 635.323 932.84 632.838Z" fill="#FFC800"/>
<g style="mix-blend-mode:multiply" opacity="0.4">
<path d="M624.869 253.571C626.038 289.825 622.735 370.528 575.726 419.893C575.26 420.421 575.002 421.101 575 421.806C574.998 422.51 575.253 423.191 575.717 423.722C576.181 424.252 576.822 424.595 577.52 424.688C578.219 424.78 578.927 424.615 579.512 424.223C604.95 405.976 639.935 369.622 652.966 302.936C655.754 286.299 657.101 269.453 656.994 252.585C656.866 248.754 655.376 245.094 652.792 242.262C650.208 239.431 646.699 237.614 642.896 237.137C640.597 236.861 638.266 237.084 636.062 237.79C633.857 238.496 631.831 239.668 630.121 241.228C628.41 242.787 627.056 244.697 626.149 246.827C625.243 248.957 624.807 251.258 624.869 253.571Z" fill="#FFD454"/>
</g>
<g style="mix-blend-mode:multiply" opacity="0.4">
<path d="M359.492 645.131C359.492 646.467 341.71 647.643 319.759 647.803C297.809 647.963 280.013 647.015 280 645.692C279.987 644.369 297.782 643.194 319.733 643.02C341.683 642.846 359.479 643.822 359.492 645.131Z" fill="#B0AFFD"/>
</g>
<path d="M559.517 354.999C558.877 354.999 558.333 354.807 557.885 354.423C557.501 353.975 557.309 353.431 557.309 352.791V299.031L541.373 311.319C540.925 311.703 540.445 311.895 539.933 311.895C539.357 311.895 538.813 311.575 538.301 310.935L535.805 307.767C535.485 307.319 535.325 306.871 535.325 306.423C535.325 305.655 535.645 305.047 536.285 304.599L557.213 288.471C557.917 288.023 558.749 287.799 559.709 287.799H564.605C565.245 287.799 565.757 288.023 566.141 288.471C566.589 288.855 566.813 289.367 566.813 290.007V352.791C566.813 353.431 566.589 353.975 566.141 354.423C565.757 354.807 565.245 354.999 564.605 354.999H559.517Z" fill="white"/>
<path d="M518.5 598L521.306 606.637H530.388L523.041 611.975L525.847 620.613L518.5 615.275L511.153 620.613L513.959 611.975L506.612 606.637H515.694L518.5 598Z" fill="#FFD700"/>
<path d="M560.5 598L563.306 606.637H572.388L565.041 611.975L567.847 620.613L560.5 615.275L553.153 620.613L555.959 611.975L548.612 606.637H557.694L560.5 598Z" fill="#FFD700"/>
<path d="M602.5 598L605.306 606.637H614.388L607.041 611.975L609.847 620.613L602.5 615.275L595.153 620.613L597.959 611.975L590.612 606.637H599.694L602.5 598Z" fill="#FFD700"/>
<path d="M161.732 178.176C167.511 177.143 172.713 174.033 176.36 169.432C177.839 175.071 180.04 175.914 184.635 178.035C180.738 181.954 175.771 184.637 170.357 185.748C168.258 185.702 166.243 184.918 164.665 183.533C163.088 182.148 162.049 180.251 161.732 178.176V178.176Z" fill="#F9D04E"/>
<path d="M120.307 362.817C123.319 357.778 124.385 351.811 123.305 346.041C128.53 348.623 130.61 347.516 135.226 345.439C135.627 350.951 134.394 356.46 131.681 361.275C130.269 362.829 128.355 363.835 126.274 364.117C124.194 364.399 122.081 363.939 120.307 362.817V362.817Z" fill="#F9D04E"/>
<path d="M630.37 165.331C635.368 162.252 639.069 157.452 640.775 151.835C644.218 156.538 646.575 156.516 651.627 156.805C649.438 161.88 645.801 166.197 641.171 169.215C639.201 169.942 637.038 169.95 635.063 169.24C633.087 168.53 631.426 167.145 630.37 165.331V165.331Z" fill="#F9D04E"/>
<path d="M793.517 590.159C793.145 584.3 790.644 578.779 786.485 574.635C792.255 573.804 793.342 571.713 795.969 567.387C799.422 571.703 801.526 576.941 802.017 582.446C801.734 584.526 800.726 586.44 799.172 587.85C797.617 589.261 795.615 590.079 793.517 590.159V590.159Z" fill="#F9D04E"/>
<path d="M1011.74 330.076C1017.52 329.094 1022.75 326.03 1026.44 321.461C1027.87 327.112 1030.06 327.974 1034.64 330.135C1030.71 334.02 1025.72 336.66 1020.29 337.724C1018.2 337.66 1016.19 336.858 1014.62 335.459C1013.06 334.06 1012.03 332.154 1011.74 330.076V330.076Z" fill="#F9D04E"/>
<path d="M556.051 95.4342C559.854 90.9611 561.89 85.2526 561.777 79.3829C566.505 82.7927 568.739 82.0434 573.634 80.757C573.12 86.2601 570.995 91.4894 567.524 95.7906C565.875 97.0903 563.821 97.767 561.723 97.7019C559.624 97.6367 557.616 96.8337 556.051 95.4342V95.4342Z" fill="#F9D04E"/>
<path d="M307.823 160.022C313.213 162.35 319.267 162.629 324.847 160.805C322.969 166.323 324.339 168.24 327 172.545C321.587 173.663 315.965 173.159 310.837 171.097C309.112 169.901 307.864 168.134 307.313 166.108C306.762 164.083 306.943 161.928 307.823 160.022V160.022Z" fill="#F9D04E"/>
<path d="M428.329 137.311C431.832 142.022 436.936 145.291 442.681 146.501C438.295 150.341 438.522 152.686 438.675 157.745C433.428 156.006 428.811 152.759 425.401 148.409C424.505 146.511 424.308 144.357 424.844 142.327C425.379 140.297 426.613 138.521 428.329 137.311V137.311Z" fill="#3F3D56"/>
<path d="M94.6608 256.544C97.0612 261.901 101.337 266.197 106.683 268.622C101.571 271.421 101.285 273.76 100.339 278.732C95.593 275.899 91.7881 271.73 89.4002 266.745C88.9369 264.697 89.2104 262.552 90.1725 260.686C91.1347 258.82 92.724 257.353 94.6608 256.544V256.544Z" fill="#3F3D56"/>
<path d="M312.823 78.022C318.213 80.3504 324.267 80.6287 329.847 78.8047C327.969 84.3227 329.339 86.2404 332 90.5453C326.587 91.6627 320.965 91.159 315.837 89.0973C314.112 87.9006 312.864 86.1341 312.313 84.1084C311.762 82.0827 311.943 79.9276 312.823 78.022V78.022Z" fill="#3F3D56"/>
<path d="M934.933 114.417C940.803 114.301 946.427 112.044 950.749 108.07C951.328 113.87 953.369 115.047 957.576 117.861C953.114 121.122 947.789 122.995 942.268 123.246C940.202 122.872 938.334 121.782 936.992 120.167C935.651 118.553 934.922 116.517 934.933 114.417V114.417Z" fill="#3F3D56"/>
<path d="M990.668 431.728C987.545 426.757 982.713 423.098 977.081 421.441C981.755 417.957 981.712 415.601 981.957 410.546C987.051 412.691 991.399 416.29 994.458 420.894C995.202 422.857 995.229 425.02 994.536 427.002C993.843 428.983 992.473 430.657 990.668 431.728V431.728Z" fill="#3F3D56"/>
<path d="M618.94 30.6595C618.773 24.791 616.466 19.1862 612.455 14.8997C618.25 14.2702 619.409 12.2183 622.186 7.98704C625.486 12.4205 627.406 17.7288 627.704 23.2477C627.349 25.3168 626.275 27.1942 624.672 28.5498C623.069 29.9055 621.039 30.6524 618.94 30.6595V30.6595Z" fill="#3F3D56"/>
<path d="M426.752 33.7826C432.564 32.952 437.871 30.0259 441.676 25.555C442.958 31.2414 445.128 32.1607 449.646 34.4408C445.615 38.2217 440.558 40.7299 435.108 41.6514C433.012 41.5324 431.025 40.6781 429.497 39.2389C427.968 37.7997 426.997 35.8677 426.752 33.7826V33.7826Z" fill="#F86D70"/>
<path d="M399.731 463.962C405.424 462.529 410.397 459.064 413.713 454.219C415.582 459.741 417.836 460.428 422.568 462.224C418.954 466.405 414.187 469.428 408.864 470.914C406.767 471.015 404.702 470.373 403.031 469.102C401.361 467.83 400.192 466.01 399.731 463.962V463.962Z" fill="#F86D70"/>
<path d="M61.6533 406.696C67.3464 405.262 72.3191 401.798 75.6358 396.953C77.5047 402.475 79.7588 403.162 84.4908 404.957C80.8767 409.139 76.1097 412.162 70.7862 413.648C68.6893 413.749 66.624 413.107 64.9535 411.835C63.2831 410.564 62.1145 408.744 61.6533 406.696V406.696Z" fill="#F86D70"/>
<path d="M919.886 525.397C921.342 519.709 920.67 513.686 917.996 508.46C923.74 509.452 925.419 507.799 929.255 504.497C931.205 509.669 931.588 515.3 930.353 520.688C929.441 522.579 927.892 524.087 925.977 524.949C924.063 525.81 921.906 525.969 919.886 525.397V525.397Z" fill="#F86D70"/>
<path d="M944.827 202.36C946.654 207.939 950.457 212.658 955.521 215.629C950.144 217.878 949.615 220.175 948.154 225.02C943.731 221.707 940.383 217.162 938.529 211.956C938.282 209.871 938.778 207.766 939.93 206.011C941.082 204.256 942.816 202.963 944.827 202.36V202.36Z" fill="#F86D70"/>
<path d="M506.738 195.245C511.449 191.742 514.717 186.638 515.928 180.893C519.767 185.279 522.113 185.051 527.172 184.899C525.433 190.146 522.186 194.763 517.836 198.173C515.937 199.068 513.784 199.266 511.754 198.73C509.724 198.195 507.948 196.961 506.738 195.245V195.245Z" fill="#F86D70"/>
<path d="M804.468 72.5862C806.962 77.9011 811.312 82.1214 816.7 84.4528C811.637 87.3409 811.392 89.6848 810.533 94.6723C805.738 91.9225 801.861 87.8199 799.387 82.8778C798.888 80.8386 799.124 78.6888 800.053 76.8064C800.982 74.924 802.546 73.4297 804.468 72.5862V72.5862Z" fill="#F86D70"/>
<defs>
<linearGradient id="paint0_linear" x1="808.53" y1="504.93" x2="808.53" y2="102.63" gradientUnits="userSpaceOnUse">
<stop stop-color="#808080" stop-opacity="0.25"/>
<stop offset="0.54" stop-color="#808080" stop-opacity="0.12"/>
<stop offset="1" stop-color="#808080" stop-opacity="0.1"/>
</linearGradient>
<linearGradient id="paint1_linear" x1="39851.4" y1="250585" x2="89243" y2="250585" gradientUnits="userSpaceOnUse">
<stop stop-color="#808080" stop-opacity="0.25"/>
<stop offset="0.54" stop-color="#808080" stop-opacity="0.12"/>
<stop offset="1" stop-color="#808080" stop-opacity="0.1"/>
</linearGradient>
</defs>
</svg>
