<svg width="256" height="275" viewBox="0 0 256 275" fill="none" xmlns="http://www.w3.org/2000/svg">
<path d="M86.4 143C85.0667 143 83.9333 142.6 83 141.8C82.2 140.867 81.8 139.733 81.8 138.4V132C81.8 128.933 83.4667 126 86.8 123.2L129.2 80.8C139.467 72.2667 146.533 65.3333 150.4 60C154.267 54.5333 156.2 48.8 156.2 42.8C156.2 35.0667 154 29 149.6 24.6C145.333 20.2 139.067 18 130.8 18C123.067 18 116.867 20.3333 112.2 25C107.533 29.5333 104.667 35.6 103.6 43.2C103.333 44.8 102.667 46 101.6 46.8C100.667 47.4667 99.6 47.8 98.4 47.8H88C86.8 47.8 85.8 47.4667 85 46.8C84.2 46 83.8 45.0667 83.8 44C84.0667 36.8 86 29.9333 89.6 23.4C93.2 16.7333 98.4667 11.3333 105.4 7.2C112.467 2.93333 120.933 0.799995 130.8 0.799995C145.867 0.799995 157.2 4.73333 164.8 12.6C172.533 20.3333 176.4 30.2 176.4 42.2C176.4 50.6 174.267 58.2 170 65C165.867 71.6667 159.4 78.8667 150.6 86.6L112.2 125.6H174.6C176.067 125.6 177.2 126.067 178 127C178.933 127.8 179.4 128.867 179.4 130.2V138.4C179.4 139.733 178.933 140.867 178 141.8C177.067 142.6 175.933 143 174.6 143H86.4Z" fill="white"/>
<path d="M72.2516 4.04786C71.4816 4.58253 67.2043 6.82814 62.7344 9.03099C58.2646 11.2552 53.7306 13.5864 52.6399 14.228C48.5122 16.6875 45.9458 19.0186 44.7481 21.3926C44.2135 22.4405 44.1279 22.8682 44.1279 24.3225C44.1493 25.4774 44.2563 26.3115 44.5129 26.8676L44.8765 27.7017L47.1862 27.5733C50.7151 27.3809 52.811 26.5254 55.634 24.1087C57.6016 22.4191 58.5426 21.307 62.8414 15.6609C67.3326 9.75814 68.1025 8.8385 71.2464 5.65187C72.6579 4.21896 73.77 3.04268 73.7273 3.06407C73.6845 3.06407 73.0215 3.51319 72.2516 4.04786Z" fill="white"/>
<path d="M184.681 5.63048C187.847 8.85989 188.659 9.8223 193.086 15.6609C197.364 21.2856 198.326 22.4191 200.294 24.1087C203.096 26.504 205.213 27.3809 208.742 27.5733L211.009 27.7017L211.394 26.9745C211.672 26.4398 211.779 25.7555 211.8 24.4295C211.8 22.8682 211.714 22.4405 211.223 21.4139C210.025 18.9758 207.18 16.4736 202.646 13.8644C201.492 13.2014 197.064 10.9344 192.808 8.8385C188.552 6.72121 184.403 4.56114 183.569 4.00509L182.072 2.99991L184.681 5.63048Z" fill="white"/>
<path d="M39.9357 16.7945C32.8139 23.1464 29.4776 29.7122 30.6325 35.123C30.996 36.8126 32.3006 39.8281 32.6856 39.8281C33.1133 39.8281 37.134 35.6363 38.0109 34.2889C39.3583 32.1717 39.7218 30.696 40.0854 25.9267C40.4062 21.5638 40.727 19.3396 41.4542 16.8587C41.6894 16.046 41.8391 15.3402 41.7964 15.2975C41.7536 15.2333 40.8981 15.9177 39.9357 16.7945Z" fill="white"/>
<path d="M214.131 15.5969C215.158 19.0188 215.457 20.858 215.842 25.9267C216.206 30.696 216.569 32.193 217.917 34.2889C218.751 35.5935 222.836 39.8281 223.242 39.8281C223.499 39.8281 224.568 37.7108 225.081 36.1924C225.616 34.6097 225.616 31.2306 225.081 29.4555C224.568 27.6804 222.9 24.5793 221.403 22.569C220.098 20.858 215.243 15.8535 214.452 15.4258C214.067 15.2333 214.024 15.2547 214.131 15.5969Z" fill="white"/>
<path d="M27.0179 31.6372C18.9337 41.7318 17.0517 50.2437 21.5429 56.5529C22.9544 58.5418 22.7405 58.4777 23.9382 57.1517C25.4353 55.5049 27.2745 52.7032 28.0017 50.9495C29.0283 48.5114 29.178 46.7363 28.7716 42.2665C28.3439 37.8822 28.3011 33.7545 28.6433 31.3806C28.7716 30.4823 28.8144 29.691 28.7716 29.6483C28.7288 29.6055 27.9375 30.5037 27.0179 31.6372Z" fill="white"/>
<path d="M227.177 30.2042C227.562 32.4071 227.562 37.6682 227.199 41.9456C226.75 46.9287 226.857 48.3402 227.862 50.8425C228.696 52.8956 232.353 58.1782 232.973 58.1995C233.315 58.2209 234.812 56.0823 235.54 54.4782C238.363 48.383 236.203 40.7479 229.145 31.9152C227.07 29.3488 227.006 29.2846 227.177 30.2042Z" fill="white"/>
<path d="M55.6762 31.0378C55.5478 31.1447 54.8849 31.4441 54.1791 31.7008C53.0456 32.1499 52.3826 32.214 48.5116 32.321L44.1273 32.4493L42.5233 33.2192C41.6464 33.647 40.3846 34.481 39.7002 35.0371C38.4812 36.1064 36.6205 38.0954 36.7702 38.181C37.1338 38.4376 38.8234 39.0364 39.9569 39.3145C40.9407 39.5711 41.9031 39.6353 43.2718 39.5711C45.4747 39.4428 46.9931 38.9295 49.0463 37.5821C50.3508 36.7267 56.4889 30.8667 56.1039 30.8453C55.9756 30.8453 55.7831 30.9308 55.6762 31.0378Z" fill="white"/>
<path d="M202.603 33.7967C207.073 38.2023 209.126 39.3786 212.655 39.5711C214.024 39.6353 214.986 39.5711 215.97 39.3145C217.104 39.0364 218.793 38.4376 219.157 38.2023C219.307 38.074 217.638 36.2775 216.334 35.144C215.607 34.5238 214.281 33.647 213.404 33.2192L211.8 32.4493L207.415 32.321C203.544 32.214 202.881 32.1499 201.748 31.7008C201.042 31.4441 200.379 31.1447 200.272 31.0378C200.144 30.9308 199.952 30.8453 199.845 30.8453C199.716 30.8453 200.957 32.1713 202.603 33.7967Z" fill="white"/>
<path d="M46.5872 44.6831C45.5393 45.4316 43.0584 46.5651 41.7752 46.8645C41.1978 46.9929 39.6365 47.2495 38.3105 47.4206C34.3112 47.9339 32.8141 48.661 30.3333 51.313C28.8362 52.8742 27.0611 55.3765 27.2322 55.6545C27.2963 55.7401 28.2374 55.9967 29.3067 56.1892C35.1239 57.2585 39.3157 55.184 44.0422 48.9177C45.5821 46.8645 47.5283 44.0843 47.3999 44.1056C47.3572 44.127 46.9936 44.3623 46.5872 44.6831Z" fill="white"/>
<path d="M209.362 45.4102C215.65 54.7349 219.948 57.4296 226.621 56.1892C227.69 55.9967 228.631 55.7401 228.696 55.6545C228.867 55.3765 227.092 52.8956 225.595 51.2916C223.156 48.7038 221.552 47.9339 217.596 47.4206C213.575 46.8859 211.65 46.2657 209.426 44.7472L208.421 44.0415L209.362 45.4102Z" fill="white"/>
<path d="M15.4265 49.9867C13.6728 53.1092 12.304 56.1034 11.3202 58.9692C10.0156 62.776 9.71621 64.3587 9.69482 67.7378C9.69482 71.0527 9.97285 72.4643 11.1064 74.8168C11.8335 76.3567 13.8653 78.9872 15.0415 79.8855C15.7901 80.4843 15.8328 80.4843 16.1109 80.0993C16.8594 79.0942 18.827 75.0093 19.4686 73.1914C20.1102 71.3094 20.153 70.9672 20.1744 68.3794C20.1744 65.6633 20.153 65.5135 18.9553 61.1079C17.5438 55.9109 17.0947 53.6011 16.9022 50.1364L16.7525 47.6342L15.4265 49.9867Z" fill="white"/>
<path d="M238.983 50.4574C238.833 53.7509 238.384 56.1035 236.887 61.5144C235.775 65.4923 235.753 65.6634 235.775 68.3795C235.775 70.9459 235.839 71.3095 236.48 73.1915C237.101 75.0094 239.068 79.0729 239.817 80.1209C240.095 80.4844 240.159 80.4631 241.121 79.6931C243.303 77.8966 245.142 74.8383 245.933 71.6945C246.34 70.1332 246.382 69.4916 246.275 67.0963C246.104 63.0114 245.078 59.3115 242.661 54.1359C241.763 52.2111 239.346 47.7413 239.196 47.7413C239.154 47.7413 239.068 48.9603 238.983 50.4574Z" fill="white"/>
<path d="M38.8664 61.1293C36.9843 63.1183 34.7173 64.3159 30.6538 65.535C26.6973 66.7326 24.6869 68.1442 22.7193 71.0741C21.928 72.2932 19.8535 76.3139 19.8535 76.6561C19.8535 76.9341 22.698 77.0197 24.3447 76.8058C29.6059 76.1642 32.985 73.5764 36.3641 67.6309C37.1768 66.198 39.786 60.5519 39.7005 60.4449C39.6363 60.4021 39.2727 60.7016 38.8664 61.1293Z" fill="white"/>
<path d="M216.185 60.4663C216.185 60.6801 218.922 66.476 219.564 67.6309C222.943 73.5764 226.322 76.1642 231.583 76.8058C233.23 77.0197 236.074 76.9341 236.074 76.6561C236.074 76.3139 234 72.2932 233.208 71.0741C231.241 68.1441 229.231 66.7326 225.274 65.5349C221.168 64.3159 219.542 63.4604 217.318 61.3645C216.698 60.7657 216.185 60.3593 216.185 60.4663Z" fill="white"/>
<path d="M5.99471 73.0419C3.06471 82.3023 2.35895 89.1675 3.72771 94.7922C4.19821 96.6957 5.69529 99.7754 6.89295 101.251C8.04784 102.684 10.1224 104.459 11.7905 105.4L12.9668 106.084L13.6298 104.224C15.5546 98.7916 16.0251 94.3217 15.0413 90.6218C14.8488 89.916 13.5442 86.9861 12.1541 84.0988C9.65185 78.9232 8.00507 74.6245 7.44901 71.7373C7.2993 70.9887 7.10682 70.3685 7.02127 70.3043C6.93573 70.2616 6.46522 71.4806 5.99471 73.0419Z" fill="white"/>
<path d="M248.735 70.9462C248.607 71.4167 248.35 72.4005 248.158 73.149C247.452 75.9293 245.976 79.6078 243.859 83.9066C240.801 90.066 240.48 91.1353 240.48 94.7924C240.48 97.9577 240.929 100.289 242.298 104.203L242.982 106.127L243.752 105.657C247.473 103.411 249.505 101.251 251.045 97.9149C252.072 95.6693 252.478 94.1294 252.777 91.3705C253.269 86.4944 252.136 79.4153 249.698 72.2294L248.971 70.0907L248.735 70.9462Z" fill="white"/>
<path d="M34.1397 79.9066C32.4288 82.5586 29.9051 84.5904 25.6278 86.7932C20.7516 89.2955 18.5915 92.3752 16.9875 99.112L16.4956 101.187L17.5863 101.058C19.4684 100.866 22.0348 100.16 23.596 99.4114C27.8092 97.4011 30.5253 93.9792 32.4288 88.2689C33.1559 86.0447 34.8883 79.4361 34.7813 79.1795C34.7385 79.0939 34.4605 79.4147 34.1397 79.9066Z" fill="white"/>
<path d="M221.104 79.1799C221.104 79.7788 223.007 86.7722 223.67 88.697C226.087 95.498 229.765 99.1552 235.604 100.545C237.037 100.888 239.496 101.272 239.496 101.144C239.496 101.123 239.218 100.032 238.876 98.7275C237.122 92.0975 235.133 89.2959 230.471 86.8792C226.001 84.5694 223.713 82.7301 221.831 79.9498C221.424 79.351 221.104 79.0088 221.104 79.1799Z" fill="white"/>
<path d="M0.819276 96.1825C0.819276 96.2894 0.669568 97.6368 0.498474 99.1766C-0.6778 109.442 0.241832 118.125 3.10766 123.771C4.6689 126.894 7.2567 129.76 9.86589 131.321C11.2774 132.176 14.1646 133.438 15.0843 133.631C15.7259 133.759 15.7259 133.738 15.8542 132.711C16.9449 124.392 16.2605 119.344 13.4589 115.046C12.9028 114.212 11.2988 112.051 9.88728 110.298C5.8024 105.208 4.43365 103.112 2.16664 98.6419C1.43949 97.1663 0.819276 96.0541 0.819276 96.1825Z" fill="white"/>
<path d="M254.253 97.6151C252.563 101.422 250.061 105.272 246.062 110.297C241.87 115.537 240.801 117.441 240.009 121.119C239.56 123.108 239.518 128.241 239.924 131.428L240.202 133.759L240.844 133.63C241.763 133.438 244.65 132.176 246.083 131.321C246.725 130.936 247.987 129.931 248.864 129.118C253.954 124.327 256.306 116.435 255.878 105.485C255.771 102.299 255.215 96.3319 255.023 96.1394C254.98 96.0966 254.638 96.7596 254.253 97.6151Z" fill="white"/>
<path d="M32.9637 99.7111C32.7285 100.609 31.1245 103.604 30.1835 104.865C29.3066 106.042 27.4246 107.859 24.131 110.661C21.4149 112.992 20.1103 115.088 19.2334 118.51C18.7201 120.606 18.2924 124.477 18.3993 126.359L18.4635 127.685L20.5594 126.872C24.5373 125.333 27.4459 123.13 29.3708 120.264C31.7875 116.607 32.7285 112.522 33.1134 103.988C33.3059 99.6256 33.2632 98.5562 32.9637 99.7111Z" fill="white"/>
<path d="M222.707 100.716C222.75 101.508 222.857 103.604 222.921 105.336C223.413 118.104 226.771 123.686 236.159 127.172L237.635 127.728L237.507 124.691C237.314 120.457 236.78 117.869 235.603 115.388C234.727 113.506 233.614 112.18 231.305 110.255C228.417 107.817 226.728 106.17 225.744 104.866C224.846 103.668 223.028 100.246 223.028 99.7969C223.028 99.6471 222.921 99.4547 222.814 99.3905C222.664 99.305 222.622 99.7541 222.707 100.716Z" fill="white"/>
<path d="M35.9152 124.156C35.2949 128.134 33.862 131.257 30.7823 135.384C29.8413 136.646 28.7292 138.25 28.3015 138.956C26.0345 142.72 25.7137 147.725 27.2535 154.568C27.5529 155.852 27.8309 156.942 27.8737 156.985C27.9165 157.028 28.6009 156.643 29.4136 156.13C37.5192 150.868 40.2139 143.554 38.2463 132.112C37.84 129.695 36.3643 122.552 36.2573 122.445C36.2146 122.424 36.0649 123.194 35.9152 124.156Z" fill="white"/>
<path d="M218.9 126.038C217.361 133.16 216.911 136.689 217.125 140.239C217.446 146.228 219.713 150.783 224.076 154.312C225.659 155.595 227.926 157.113 228.075 156.985C228.118 156.921 228.396 155.83 228.674 154.547C230.214 147.66 229.893 142.72 227.648 138.999C227.22 138.314 226.129 136.732 225.21 135.47C221.83 130.872 220.718 128.434 219.97 123.985L219.692 122.317L218.9 126.038Z" fill="white"/>
<path d="M0.477193 128.155C0.541353 128.455 0.755221 129.845 0.926315 131.256C2.10259 140.068 4.41236 147.746 7.4279 152.943C11.5128 159.915 16.9236 163.508 24.4732 164.299C25.6281 164.427 26.5691 164.491 26.5905 164.47C26.676 164.363 26.0772 160.064 25.7136 157.99C25.2217 155.295 23.8744 151.296 22.8264 149.457C21.2224 146.612 19.2334 144.602 14.6994 141.201C9.11746 136.988 5.63141 133.823 2.5731 130.187C0.306098 127.471 0.348872 127.514 0.477193 128.155Z" fill="white"/>
<path d="M254.232 129.182C252.564 131.256 248.671 135.234 246.49 137.052C245.463 137.929 243.261 139.661 241.614 140.902C238.17 143.49 236.652 144.816 235.112 146.591C232.246 149.863 230.471 154.846 229.573 162.16C229.423 163.401 229.316 164.427 229.338 164.47C229.359 164.491 230.3 164.427 231.455 164.299C239.026 163.508 244.415 159.915 248.522 152.9C250.896 148.836 252.949 142.891 254.168 136.475C254.553 134.486 255.515 127.856 255.451 127.792C255.408 127.749 254.874 128.369 254.232 129.182Z" fill="white"/>
<path d="M45.3254 145.842C45.411 146.42 45.4965 148.002 45.4965 149.371C45.5179 153.392 45.0902 155.167 42.3313 162.396C41.0694 165.711 40.7059 168.106 41.0267 170.822C41.433 174.18 42.9301 178.436 45.2399 182.692L46.2237 184.488L47.1861 183.44C49.0253 181.366 50.6935 178.949 51.7201 176.832C54.8212 170.373 54.372 163.871 50.1161 154.461C49.0039 152.002 45.3682 144.837 45.2185 144.837C45.1757 144.837 45.2399 145.286 45.3254 145.842Z" fill="white"/>
<path d="M208.849 148.302C204.636 156.407 202.839 161.262 202.305 166.074C201.62 172.127 203.759 177.858 208.742 183.44L209.704 184.488L210.688 182.692C212.998 178.436 214.495 174.18 214.901 170.822C215.222 168.106 214.859 165.711 213.597 162.396C210.881 155.274 210.41 153.349 210.432 149.499C210.432 148.173 210.517 146.591 210.624 146.013C210.71 145.415 210.774 144.923 210.731 144.88C210.688 144.837 209.854 146.377 208.849 148.302Z" fill="white"/>
<path d="M8.64679 161.369C9.05313 162.695 11.3201 167.785 12.7958 170.715C20.0246 185.173 28.066 192.337 38.2247 193.385C40.4276 193.62 42.0102 193.535 45.0471 193.022C46.3517 192.808 47.0147 192.615 46.9505 192.444C45.4321 188.68 44.8974 187.44 43.935 185.515C41.6038 180.874 38.5669 177.067 35.5728 175.057C33.7121 173.816 30.9746 172.49 26.5903 170.715C19.7679 167.978 16.6454 166.352 11.4912 162.888C9.13868 161.326 8.51846 160.984 8.64679 161.369Z" fill="white"/>
<path d="M246.126 161.754C241.507 165.091 236.032 168.042 229.658 170.608C224.953 172.49 222.237 173.795 220.355 175.057C217.468 177.003 214.324 180.874 212.185 185.151C211.437 186.606 208.913 192.423 208.913 192.658C208.913 192.765 211.651 193.193 213.511 193.385C217.618 193.813 221.617 193.064 225.488 191.14C232.845 187.525 239.09 179.826 244.736 167.4C246.19 164.171 247.473 161.07 247.367 160.984C247.324 160.942 246.768 161.284 246.126 161.754Z" fill="white"/>
<path d="M60.5528 165.369C60.6169 165.54 60.9591 166.417 61.3227 167.293C63.1834 172.02 63.6111 176.019 62.9267 182.521C62.5204 186.285 62.6273 190.028 63.162 191.995C64.2741 196.016 67.7174 201.234 72.2086 205.64L73.6843 207.116L74.5611 205.319C75.6732 203.009 76.3576 201.213 76.9778 198.839C77.6836 196.102 77.705 191.14 77.0206 188.445C75.7802 183.526 72.7219 178.479 67.4179 172.512C64.5307 169.282 60.4031 164.984 60.5528 165.369Z" fill="white"/>
<path d="M192.937 167.679C185.494 175.592 182.265 179.869 180.233 184.617C178.8 187.932 178.437 189.75 178.458 193.6C178.458 196.487 178.522 197.193 179.014 199.053C179.591 201.213 181.11 205.106 181.901 206.389L182.329 207.073L184.339 204.999C188.788 200.401 191.696 195.909 192.766 191.996C193.3 190.007 193.386 186.478 193.001 182.607C192.317 175.806 192.723 171.978 194.69 167.08C195.097 166.096 195.396 165.262 195.353 165.219C195.332 165.198 194.241 166.31 192.937 167.679Z" fill="white"/>
<path d="M81.4478 181.323C81.4478 181.366 81.961 182.029 82.5813 182.756C85.1049 185.729 87.158 189.471 88.2701 193.064C88.6337 194.241 89.2753 196.893 89.6817 198.946C90.6227 203.565 91.1146 205.255 92.077 207.18C94.0232 211.051 96.6965 213.874 101.444 217.124C104.802 219.391 108.887 221.658 109.079 221.338C109.165 221.188 109.379 219.905 109.571 218.515C110.106 214.815 109.914 209.853 109.165 207.073C107.839 202.068 105.807 198.732 101.722 194.754C97.552 190.712 94.3868 188.573 82.1535 181.601C81.7686 181.387 81.4478 181.259 81.4478 181.323Z" fill="white"/>
<path d="M170.181 183.655C161.969 188.36 158.034 191.097 154.398 194.583C149.714 199.053 147.319 203.459 146.335 209.212C145.822 212.356 146.014 217.617 146.806 221.146C146.913 221.638 146.913 221.638 148.559 220.739C156.729 216.269 161.37 212.163 163.787 207.308C164.813 205.255 165.284 203.63 166.246 198.946C167.166 194.412 167.979 191.739 169.133 189.322C170.438 186.627 172.277 183.868 173.903 182.115C174.266 181.73 174.523 181.388 174.459 181.345C174.416 181.302 172.491 182.329 170.181 183.655Z" fill="white"/>
<path d="M26.6119 194.177C32.6644 202.282 40.0642 209.661 46.2022 213.767C51.9981 217.638 57.5372 219.52 63.162 219.541C66.0064 219.563 68.0596 219.263 70.6474 218.472C72.3797 217.937 76.9565 215.884 76.9565 215.628C76.9565 215.414 73.2993 210.88 71.6312 209.041C68.7439 205.79 64.8729 202.774 61.9002 201.405C58.6066 199.887 56.254 199.352 49.4744 198.625C46.6514 198.326 43.3792 197.919 42.2029 197.748C37.5834 197.043 32.0656 195.61 27.7882 194.027L25.9917 193.364L26.6119 194.177Z" fill="white"/>
<path d="M228.054 194.048C224.012 195.567 218.366 197.021 213.725 197.748C212.549 197.919 209.277 198.326 206.454 198.625C199.482 199.374 197.193 199.908 193.836 201.512C189.922 203.373 185.623 207.201 181.26 212.633C179.998 214.195 178.972 215.542 178.972 215.628C178.972 215.884 183.548 217.937 185.281 218.472C187.869 219.263 189.922 219.563 192.766 219.541C195.803 219.541 198.241 219.114 201.257 218.066C209.469 215.2 217.917 208.356 226.899 197.235C228.91 194.754 229.958 193.385 229.851 193.407C229.808 193.407 228.995 193.706 228.054 194.048Z" fill="white"/>
<path d="M85.9812 219.477C84.5483 219.691 81.8963 220.183 80.0998 220.525C71.2243 222.3 68.5082 222.578 60.6592 222.578C54.3073 222.578 54.0935 222.6 54.564 222.963C55.783 223.947 63.2256 228.78 65.6209 230.171C73.2988 234.619 80.5917 237.57 86.6442 238.747C90.6435 239.495 95.2844 239.623 98.7063 239.025C104.502 238.041 110.277 234.961 114.554 230.555L115.474 229.593L113.164 227.989C108.181 224.503 103.005 221.659 99.4121 220.461C95.2844 219.092 90.5793 218.75 85.9812 219.477Z" fill="white"/>
<path d="M161.006 219.37C155.467 220.311 150.142 222.835 142.763 227.989L140.454 229.593L141.266 230.449C143.469 232.716 146.848 235.175 149.842 236.672C155.938 239.731 163.872 240.244 172.021 238.105C179.591 236.116 188.638 231.668 197.792 225.444C199.503 224.268 201.107 223.156 201.363 222.942C201.834 222.6 201.577 222.578 195.268 222.578C187.334 222.578 185.045 222.343 175.335 220.44C168.107 219.028 164.514 218.771 161.006 219.37Z" fill="white"/>
<path d="M120.479 232.01C121.078 232.545 122.468 233.764 123.58 234.705C124.692 235.646 125.633 236.48 125.654 236.565C125.74 236.779 107.989 245.206 100.482 248.499C89.7672 253.226 83.6078 255.428 79.7368 255.92L77.9189 256.156L80.1859 265.566C82.1535 273.693 82.4957 274.869 82.624 274.12C83.0732 271.554 84.1639 269.437 86.2384 267.234C89.0401 264.218 92.5903 261.738 103.583 255.065C115.282 247.986 119.794 245.034 125.847 240.5C127.151 239.517 128.285 238.725 128.37 238.725C128.456 238.725 129.461 239.431 130.595 240.287C136.39 244.692 141.545 248.071 152.773 254.872C163.744 261.524 166.995 263.769 170.011 266.785C170.78 267.555 171.786 268.731 172.235 269.415C173.154 270.827 174.031 273.137 174.053 274.206C174.053 274.612 174.095 274.89 174.16 274.826C174.245 274.741 178.758 256.412 178.758 256.156C178.758 256.134 178.095 256.049 177.303 255.985C172.192 255.493 160.13 250.638 139.406 240.714C134.872 238.533 131.129 236.715 131.065 236.651C131.001 236.608 131.258 236.309 131.6 236.009C134.081 233.913 137.246 231.133 137.203 231.09C137.16 231.069 135.171 232.01 132.776 233.186C128.648 235.218 128.392 235.303 127.772 235.068C127.408 234.919 125.376 233.956 123.259 232.908L119.409 231.005L120.479 232.01Z" fill="white"/>
</svg>
