<svg width="256" height="272" viewBox="0 0 256 272" fill="none" xmlns="http://www.w3.org/2000/svg">
<path d="M129.6 150C119.067 150 109.933 148.333 102.2 145C94.6 141.533 88.8 137.067 84.8 131.6C80.9333 126.133 78.8667 120.4 78.6 114.4C78.6 113.2 79 112.267 79.8 111.6C80.6 110.8 81.6 110.4 82.8 110.4H92.6C95.4 110.4 97.2667 111.867 98.2 114.8C99.9333 121.467 103.667 126.2 109.4 129C115.133 131.667 121.867 133 129.6 133C139.067 133 146.6 130.8 152.2 126.4C157.8 121.867 160.6 115.4 160.6 107C160.6 90.8667 150.8 82.8 131.2 82.8H112.2C110.867 82.8 109.733 82.4 108.8 81.6C108 80.6667 107.6 79.5333 107.6 78.2V72.8C107.6 70.9333 108.333 69.1333 109.8 67.4L148.6 25H89.6C88.2667 25 87.1333 24.6 86.2 23.8C85.4 22.8667 85 21.7333 85 20.4V12.8C85 11.4667 85.4 10.3333 86.2 9.4C87.1333 8.46666 88.2667 7.99999 89.6 7.99999H169.4C170.867 7.99999 172 8.46666 172.8 9.4C173.733 10.2 174.2 11.3333 174.2 12.8V20C174.2 21.6 173.467 23.1333 172 24.6L133.4 67.6L136.6 67.8C150.2 68.2 160.933 71.7333 168.8 78.4C176.667 85.0667 180.6 94.8 180.6 107.6C180.6 116.267 178.4 123.8 174 130.2C169.6 136.6 163.533 141.533 155.8 145C148.067 148.333 139.333 150 129.6 150Z" fill="black"/>
<path d="M72.2516 1.04786C71.4816 1.58253 67.2043 3.82814 62.7344 6.03099C58.2646 8.25521 53.7306 10.5864 52.6399 11.228C48.5122 13.6875 45.9458 16.0186 44.7481 18.3926C44.2135 19.4405 44.1279 19.8682 44.1279 21.3225C44.1493 22.4774 44.2563 23.3115 44.5129 23.8676L44.8765 24.7017L47.1862 24.5733C50.7151 24.3809 52.811 23.5254 55.634 21.1087C57.6016 19.4191 58.5426 18.307 62.8414 12.6609C67.3326 6.75814 68.1025 5.8385 71.2464 2.65187C72.6579 1.21896 73.77 0.0426815 73.7273 0.0640683C73.6845 0.0640683 73.0215 0.513191 72.2516 1.04786Z" fill="black"/>
<path d="M184.681 2.63048C187.847 5.85989 188.659 6.8223 193.086 12.6609C197.364 18.2856 198.326 19.4191 200.294 21.1087C203.096 23.504 205.213 24.3809 208.742 24.5733L211.009 24.7017L211.394 23.9745C211.672 23.4398 211.779 22.7555 211.8 21.4295C211.8 19.8682 211.714 19.4405 211.223 18.4139C210.025 15.9758 207.18 13.4736 202.646 10.8644C201.492 10.2014 197.064 7.93441 192.808 5.8385C188.552 3.72121 184.403 1.56114 183.569 1.00509L182.072 -9.42294e-05L184.681 2.63048Z" fill="black"/>
<path d="M39.9357 13.7945C32.8139 20.1464 29.4776 26.7122 30.6325 32.123C30.996 33.8126 32.3006 36.8281 32.6856 36.8281C33.1133 36.8281 37.134 32.6363 38.0109 31.2889C39.3583 29.1717 39.7218 27.696 40.0854 22.9267C40.4062 18.5638 40.727 16.3396 41.4542 13.8587C41.6894 13.046 41.8391 12.3402 41.7964 12.2975C41.7536 12.2333 40.8981 12.9177 39.9357 13.7945Z" fill="black"/>
<path d="M214.131 12.5969C215.158 16.0188 215.457 17.858 215.842 22.9267C216.206 27.696 216.569 29.193 217.917 31.2889C218.751 32.5935 222.836 36.8281 223.242 36.8281C223.499 36.8281 224.568 34.7108 225.081 33.1924C225.616 31.6097 225.616 28.2306 225.081 26.4555C224.568 24.6804 222.9 21.5793 221.403 19.569C220.098 17.858 215.243 12.8535 214.452 12.4258C214.067 12.2333 214.024 12.2547 214.131 12.5969Z" fill="black"/>
<path d="M27.0179 28.6372C18.9337 38.7318 17.0517 47.2437 21.5429 53.5529C22.9544 55.5418 22.7405 55.4777 23.9382 54.1517C25.4353 52.5049 27.2745 49.7032 28.0017 47.9495C29.0283 45.5114 29.178 43.7363 28.7716 39.2665C28.3439 34.8822 28.3011 30.7545 28.6433 28.3806C28.7716 27.4823 28.8144 26.691 28.7716 26.6483C28.7288 26.6055 27.9375 27.5037 27.0179 28.6372Z" fill="black"/>
<path d="M227.177 27.2042C227.562 29.4071 227.562 34.6682 227.199 38.9456C226.75 43.9287 226.857 45.3402 227.862 47.8425C228.696 49.8956 232.353 55.1782 232.973 55.1995C233.315 55.2209 234.812 53.0823 235.54 51.4782C238.363 45.383 236.203 37.7479 229.145 28.9152C227.07 26.3488 227.006 26.2846 227.177 27.2042Z" fill="black"/>
<path d="M55.6762 28.0378C55.5478 28.1447 54.8849 28.4441 54.1791 28.7008C53.0456 29.1499 52.3826 29.214 48.5116 29.321L44.1273 29.4493L42.5233 30.2192C41.6464 30.647 40.3846 31.481 39.7002 32.0371C38.4812 33.1064 36.6205 35.0954 36.7702 35.181C37.1338 35.4376 38.8234 36.0364 39.9569 36.3145C40.9407 36.5711 41.9031 36.6353 43.2718 36.5711C45.4747 36.4428 46.9931 35.9295 49.0463 34.5821C50.3508 33.7267 56.4889 27.8667 56.1039 27.8453C55.9756 27.8453 55.7831 27.9308 55.6762 28.0378Z" fill="black"/>
<path d="M202.603 30.7967C207.073 35.2023 209.126 36.3786 212.655 36.5711C214.024 36.6353 214.986 36.5711 215.97 36.3145C217.104 36.0364 218.793 35.4376 219.157 35.2023C219.307 35.074 217.638 33.2775 216.334 32.144C215.607 31.5238 214.281 30.647 213.404 30.2192L211.8 29.4493L207.415 29.321C203.544 29.214 202.881 29.1499 201.748 28.7008C201.042 28.4441 200.379 28.1447 200.272 28.0378C200.144 27.9308 199.952 27.8453 199.845 27.8453C199.716 27.8453 200.957 29.1713 202.603 30.7967Z" fill="black"/>
<path d="M46.5872 41.6831C45.5393 42.4316 43.0584 43.5651 41.7752 43.8645C41.1978 43.9929 39.6365 44.2495 38.3105 44.4206C34.3112 44.9339 32.8141 45.661 30.3333 48.313C28.8362 49.8742 27.0611 52.3765 27.2322 52.6545C27.2963 52.7401 28.2374 52.9967 29.3067 53.1892C35.1239 54.2585 39.3157 52.184 44.0422 45.9177C45.5821 43.8645 47.5283 41.0843 47.3999 41.1056C47.3572 41.127 46.9936 41.3623 46.5872 41.6831Z" fill="black"/>
<path d="M209.362 42.4102C215.65 51.7349 219.948 54.4296 226.621 53.1892C227.69 52.9967 228.631 52.7401 228.696 52.6545C228.867 52.3765 227.092 49.8956 225.595 48.2916C223.156 45.7038 221.552 44.9339 217.596 44.4206C213.575 43.8859 211.65 43.2657 209.426 41.7472L208.421 41.0415L209.362 42.4102Z" fill="black"/>
<path d="M15.4265 46.9867C13.6728 50.1092 12.304 53.1034 11.3202 55.9692C10.0156 59.776 9.71621 61.3587 9.69482 64.7378C9.69482 68.0527 9.97285 69.4643 11.1064 71.8168C11.8335 73.3567 13.8653 75.9872 15.0415 76.8855C15.7901 77.4843 15.8328 77.4843 16.1109 77.0993C16.8594 76.0942 18.827 72.0093 19.4686 70.1914C20.1102 68.3094 20.153 67.9672 20.1744 65.3794C20.1744 62.6633 20.153 62.5135 18.9553 58.1079C17.5438 52.9109 17.0947 50.6011 16.9022 47.1364L16.7525 44.6342L15.4265 46.9867Z" fill="black"/>
<path d="M238.983 47.4574C238.833 50.7509 238.384 53.1035 236.887 58.5144C235.775 62.4923 235.753 62.6634 235.775 65.3795C235.775 67.9459 235.839 68.3095 236.48 70.1915C237.101 72.0094 239.068 76.0729 239.817 77.1209C240.095 77.4844 240.159 77.4631 241.121 76.6931C243.303 74.8966 245.142 71.8383 245.933 68.6945C246.34 67.1332 246.382 66.4916 246.275 64.0963C246.104 60.0114 245.078 56.3115 242.661 51.1359C241.763 49.2111 239.346 44.7413 239.196 44.7413C239.154 44.7413 239.068 45.9603 238.983 47.4574Z" fill="black"/>
<path d="M38.8664 58.1293C36.9843 60.1183 34.7173 61.3159 30.6538 62.535C26.6973 63.7326 24.6869 65.1442 22.7193 68.0741C21.928 69.2932 19.8535 73.3139 19.8535 73.6561C19.8535 73.9341 22.698 74.0197 24.3447 73.8058C29.6059 73.1642 32.985 70.5764 36.3641 64.6309C37.1768 63.198 39.786 57.5519 39.7005 57.4449C39.6363 57.4021 39.2727 57.7016 38.8664 58.1293Z" fill="black"/>
<path d="M216.185 57.4663C216.185 57.6801 218.922 63.476 219.564 64.6309C222.943 70.5764 226.322 73.1642 231.583 73.8058C233.23 74.0197 236.074 73.9341 236.074 73.6561C236.074 73.3139 234 69.2932 233.208 68.0741C231.241 65.1441 229.231 63.7326 225.274 62.5349C221.168 61.3159 219.542 60.4604 217.318 58.3645C216.698 57.7657 216.185 57.3593 216.185 57.4663Z" fill="black"/>
<path d="M5.99471 70.0419C3.06471 79.3023 2.35895 86.1675 3.72771 91.7922C4.19821 93.6957 5.69529 96.7754 6.89295 98.2511C8.04784 99.684 10.1224 101.459 11.7905 102.4L12.9668 103.084L13.6298 101.224C15.5546 95.7916 16.0251 91.3217 15.0413 87.6218C14.8488 86.916 13.5442 83.9861 12.1541 81.0988C9.65185 75.9232 8.00507 71.6245 7.44901 68.7373C7.2993 67.9887 7.10682 67.3685 7.02127 67.3043C6.93573 67.2616 6.46522 68.4806 5.99471 70.0419Z" fill="black"/>
<path d="M248.735 67.9462C248.607 68.4167 248.35 69.4005 248.158 70.149C247.452 72.9293 245.976 76.6078 243.859 80.9066C240.801 87.066 240.48 88.1353 240.48 91.7924C240.48 94.9577 240.929 97.2888 242.298 101.203L242.982 103.127L243.752 102.657C247.473 100.411 249.505 98.2513 251.045 94.9149C252.072 92.6693 252.478 91.1294 252.777 88.3705C253.269 83.4944 252.136 76.4153 249.698 69.2294L248.971 67.0907L248.735 67.9462Z" fill="black"/>
<path d="M34.1397 76.9066C32.4288 79.5586 29.9051 81.5904 25.6278 83.7932C20.7516 86.2955 18.5915 89.3752 16.9875 96.112L16.4956 98.1865L17.5863 98.0582C19.4684 97.8657 22.0348 97.16 23.596 96.4114C27.8092 94.4011 30.5253 90.9792 32.4288 85.2689C33.1559 83.0447 34.8883 76.4361 34.7813 76.1795C34.7385 76.0939 34.4605 76.4147 34.1397 76.9066Z" fill="black"/>
<path d="M221.104 76.1799C221.104 76.7788 223.007 83.7722 223.67 85.697C226.087 92.498 229.765 96.1552 235.604 97.5453C237.037 97.8875 239.496 98.2725 239.496 98.1442C239.496 98.1228 239.218 97.032 238.876 95.7275C237.122 89.0975 235.133 86.2959 230.471 83.8792C226.001 81.5694 223.713 79.7301 221.831 76.9498C221.424 76.351 221.104 76.0088 221.104 76.1799Z" fill="black"/>
<path d="M0.819276 93.1825C0.819276 93.2894 0.669568 94.6368 0.498474 96.1766C-0.6778 106.442 0.241832 115.125 3.10766 120.771C4.6689 123.894 7.2567 126.76 9.86589 128.321C11.2774 129.176 14.1646 130.438 15.0843 130.631C15.7259 130.759 15.7259 130.738 15.8542 129.711C16.9449 121.392 16.2605 116.344 13.4589 112.046C12.9028 111.212 11.2988 109.051 9.88728 107.298C5.8024 102.208 4.43365 100.112 2.16664 95.6419C1.43949 94.1663 0.819276 93.0541 0.819276 93.1825Z" fill="black"/>
<path d="M254.253 94.6151C252.563 98.4219 250.061 102.272 246.062 107.297C241.87 112.537 240.801 114.441 240.009 118.119C239.56 120.108 239.518 125.241 239.924 128.428L240.202 130.759L240.844 130.63C241.763 130.438 244.65 129.176 246.083 128.321C246.725 127.936 247.987 126.931 248.864 126.118C253.954 121.327 256.306 113.435 255.878 102.485C255.771 99.2988 255.215 93.3319 255.023 93.1394C254.98 93.0966 254.638 93.7596 254.253 94.6151Z" fill="black"/>
<path d="M32.9637 96.7111C32.7285 97.6094 31.1245 100.604 30.1835 101.865C29.3066 103.042 27.4246 104.859 24.131 107.661C21.4149 109.992 20.1103 112.088 19.2334 115.51C18.7201 117.606 18.2924 121.477 18.3993 123.359L18.4635 124.685L20.5594 123.872C24.5373 122.333 27.4459 120.13 29.3708 117.264C31.7875 113.607 32.7285 109.522 33.1134 100.988C33.3059 96.6256 33.2632 95.5562 32.9637 96.7111Z" fill="black"/>
<path d="M222.707 97.7165C222.75 98.5078 222.857 100.604 222.921 102.336C223.413 115.104 226.771 120.686 236.159 124.172L237.635 124.728L237.507 121.691C237.314 117.457 236.78 114.869 235.603 112.388C234.727 110.506 233.614 109.18 231.305 107.255C228.417 104.817 226.728 103.17 225.744 101.866C224.846 100.668 223.028 97.246 223.028 96.7969C223.028 96.6471 222.921 96.4547 222.814 96.3905C222.664 96.305 222.622 96.7541 222.707 97.7165Z" fill="black"/>
<path d="M35.9152 121.156C35.2949 125.134 33.862 128.257 30.7823 132.384C29.8413 133.646 28.7292 135.25 28.3015 135.956C26.0345 139.72 25.7137 144.725 27.2535 151.568C27.5529 152.852 27.8309 153.942 27.8737 153.985C27.9165 154.028 28.6009 153.643 29.4136 153.13C37.5192 147.868 40.2139 140.554 38.2463 129.112C37.84 126.695 36.3643 119.552 36.2573 119.445C36.2146 119.424 36.0649 120.194 35.9152 121.156Z" fill="black"/>
<path d="M218.9 123.038C217.361 130.16 216.911 133.689 217.125 137.239C217.446 143.228 219.713 147.783 224.076 151.312C225.659 152.595 227.926 154.113 228.075 153.985C228.118 153.921 228.396 152.83 228.674 151.547C230.214 144.66 229.893 139.72 227.648 135.999C227.22 135.314 226.129 133.732 225.21 132.47C221.83 127.872 220.718 125.434 219.97 120.985L219.692 119.317L218.9 123.038Z" fill="black"/>
<path d="M0.477193 125.155C0.541353 125.455 0.755221 126.845 0.926315 128.256C2.10259 137.068 4.41236 144.746 7.4279 149.943C11.5128 156.915 16.9236 160.508 24.4732 161.299C25.6281 161.427 26.5691 161.491 26.5905 161.47C26.676 161.363 26.0772 157.064 25.7136 154.99C25.2217 152.295 23.8744 148.296 22.8264 146.457C21.2224 143.612 19.2334 141.602 14.6994 138.201C9.11746 133.988 5.63141 130.823 2.5731 127.187C0.306098 124.471 0.348872 124.514 0.477193 125.155Z" fill="black"/>
<path d="M254.232 126.182C252.564 128.256 248.671 132.234 246.49 134.052C245.463 134.929 243.261 136.661 241.614 137.902C238.17 140.49 236.652 141.816 235.112 143.591C232.246 146.863 230.471 151.846 229.573 159.16C229.423 160.401 229.316 161.427 229.338 161.47C229.359 161.491 230.3 161.427 231.455 161.299C239.026 160.508 244.415 156.915 248.522 149.9C250.896 145.836 252.949 139.891 254.168 133.475C254.553 131.486 255.515 124.856 255.451 124.792C255.408 124.749 254.874 125.369 254.232 126.182Z" fill="black"/>
<path d="M45.3254 142.842C45.411 143.42 45.4965 145.002 45.4965 146.371C45.5179 150.392 45.0902 152.167 42.3313 159.396C41.0694 162.711 40.7059 165.106 41.0267 167.822C41.433 171.18 42.9301 175.436 45.2399 179.692L46.2237 181.488L47.1861 180.44C49.0253 178.366 50.6935 175.949 51.7201 173.832C54.8212 167.373 54.372 160.871 50.1161 151.461C49.0039 149.002 45.3682 141.837 45.2185 141.837C45.1757 141.837 45.2399 142.286 45.3254 142.842Z" fill="black"/>
<path d="M208.849 145.302C204.636 153.407 202.839 158.262 202.305 163.074C201.62 169.127 203.759 174.858 208.742 180.44L209.704 181.488L210.688 179.692C212.998 175.436 214.495 171.18 214.901 167.822C215.222 165.106 214.859 162.711 213.597 159.396C210.881 152.274 210.41 150.349 210.432 146.499C210.432 145.173 210.517 143.591 210.624 143.013C210.71 142.415 210.774 141.923 210.731 141.88C210.688 141.837 209.854 143.377 208.849 145.302Z" fill="black"/>
<path d="M8.64679 158.369C9.05313 159.695 11.3201 164.785 12.7958 167.715C20.0246 182.173 28.066 189.337 38.2247 190.385C40.4276 190.62 42.0102 190.535 45.0471 190.022C46.3517 189.808 47.0147 189.615 46.9505 189.444C45.4321 185.68 44.8974 184.44 43.935 182.515C41.6038 177.874 38.5669 174.067 35.5728 172.057C33.7121 170.816 30.9746 169.49 26.5903 167.715C19.7679 164.978 16.6454 163.352 11.4912 159.888C9.13868 158.326 8.51846 157.984 8.64679 158.369Z" fill="black"/>
<path d="M246.126 158.754C241.507 162.091 236.032 165.042 229.658 167.608C224.953 169.49 222.237 170.795 220.355 172.057C217.468 174.003 214.324 177.874 212.185 182.151C211.437 183.606 208.913 189.423 208.913 189.658C208.913 189.765 211.651 190.193 213.511 190.385C217.618 190.813 221.617 190.064 225.488 188.14C232.845 184.525 239.09 176.826 244.736 164.4C246.19 161.171 247.473 158.07 247.367 157.984C247.324 157.942 246.768 158.284 246.126 158.754Z" fill="black"/>
<path d="M60.5528 162.369C60.6169 162.54 60.9591 163.417 61.3227 164.293C63.1834 169.02 63.6111 173.019 62.9267 179.521C62.5204 183.285 62.6273 187.028 63.162 188.995C64.2741 193.016 67.7174 198.234 72.2086 202.64L73.6843 204.116L74.5611 202.319C75.6732 200.009 76.3576 198.213 76.9778 195.839C77.6836 193.102 77.705 188.14 77.0206 185.445C75.7802 180.526 72.7219 175.479 67.4179 169.512C64.5307 166.282 60.4031 161.984 60.5528 162.369Z" fill="black"/>
<path d="M192.937 164.679C185.494 172.592 182.265 176.869 180.233 181.617C178.8 184.932 178.437 186.75 178.458 190.6C178.458 193.487 178.522 194.193 179.014 196.053C179.591 198.213 181.11 202.106 181.901 203.389L182.329 204.073L184.339 201.999C188.788 197.401 191.696 192.909 192.766 188.996C193.3 187.007 193.386 183.478 193.001 179.607C192.317 172.806 192.723 168.978 194.69 164.08C195.097 163.096 195.396 162.262 195.353 162.219C195.332 162.198 194.241 163.31 192.937 164.679Z" fill="black"/>
<path d="M81.4478 178.323C81.4478 178.366 81.961 179.029 82.5813 179.756C85.1049 182.729 87.158 186.471 88.2701 190.064C88.6337 191.241 89.2753 193.893 89.6817 195.946C90.6227 200.565 91.1146 202.255 92.077 204.18C94.0232 208.051 96.6965 210.874 101.444 214.124C104.802 216.391 108.887 218.658 109.079 218.338C109.165 218.188 109.379 216.905 109.571 215.515C110.106 211.815 109.914 206.853 109.165 204.073C107.839 199.068 105.807 195.732 101.722 191.754C97.552 187.712 94.3868 185.573 82.1535 178.601C81.7686 178.387 81.4478 178.259 81.4478 178.323Z" fill="black"/>
<path d="M170.181 180.655C161.969 185.36 158.034 188.097 154.398 191.583C149.714 196.053 147.319 200.459 146.335 206.212C145.822 209.356 146.014 214.617 146.806 218.146C146.913 218.638 146.913 218.638 148.559 217.739C156.729 213.269 161.37 209.163 163.787 204.308C164.813 202.255 165.284 200.63 166.246 195.946C167.166 191.412 167.979 188.739 169.133 186.322C170.438 183.627 172.277 180.868 173.903 179.115C174.266 178.73 174.523 178.388 174.459 178.345C174.416 178.302 172.491 179.329 170.181 180.655Z" fill="black"/>
<path d="M26.6119 191.177C32.6644 199.282 40.0642 206.661 46.2022 210.767C51.9981 214.638 57.5372 216.52 63.162 216.541C66.0064 216.563 68.0596 216.263 70.6474 215.472C72.3797 214.937 76.9565 212.884 76.9565 212.628C76.9565 212.414 73.2993 207.88 71.6312 206.041C68.7439 202.79 64.8729 199.774 61.9002 198.405C58.6066 196.887 56.254 196.352 49.4744 195.625C46.6514 195.326 43.3792 194.919 42.2029 194.748C37.5834 194.043 32.0656 192.61 27.7882 191.027L25.9917 190.364L26.6119 191.177Z" fill="black"/>
<path d="M228.054 191.048C224.012 192.567 218.366 194.021 213.725 194.748C212.549 194.919 209.277 195.326 206.454 195.625C199.482 196.374 197.193 196.908 193.836 198.512C189.922 200.373 185.623 204.201 181.26 209.633C179.998 211.195 178.972 212.542 178.972 212.628C178.972 212.884 183.548 214.937 185.281 215.472C187.869 216.263 189.922 216.563 192.766 216.541C195.803 216.541 198.241 216.114 201.257 215.066C209.469 212.2 217.917 205.356 226.899 194.235C228.91 191.754 229.958 190.385 229.851 190.407C229.808 190.407 228.995 190.706 228.054 191.048Z" fill="black"/>
<path d="M85.9812 216.477C84.5483 216.691 81.8963 217.183 80.0998 217.525C71.2243 219.3 68.5082 219.578 60.6592 219.578C54.3073 219.578 54.0935 219.6 54.564 219.963C55.783 220.947 63.2256 225.78 65.6209 227.171C73.2988 231.619 80.5917 234.57 86.6442 235.747C90.6435 236.495 95.2844 236.623 98.7063 236.025C104.502 235.041 110.277 231.961 114.554 227.555L115.474 226.593L113.164 224.989C108.181 221.503 103.005 218.659 99.4121 217.461C95.2844 216.092 90.5793 215.75 85.9812 216.477Z" fill="black"/>
<path d="M161.006 216.37C155.467 217.311 150.142 219.835 142.763 224.989L140.454 226.593L141.266 227.449C143.469 229.716 146.848 232.175 149.842 233.672C155.938 236.731 163.872 237.244 172.021 235.105C179.591 233.116 188.638 228.668 197.792 222.444C199.503 221.268 201.107 220.156 201.363 219.942C201.834 219.6 201.577 219.578 195.268 219.578C187.334 219.578 185.045 219.343 175.335 217.44C168.107 216.028 164.514 215.771 161.006 216.37Z" fill="black"/>
<path d="M120.479 229.01C121.078 229.545 122.468 230.764 123.58 231.705C124.692 232.646 125.633 233.48 125.654 233.565C125.74 233.779 107.989 242.206 100.482 245.499C89.7672 250.226 83.6078 252.428 79.7368 252.92L77.9189 253.156L80.1859 262.566C82.1535 270.693 82.4957 271.869 82.624 271.12C83.0732 268.554 84.1639 266.437 86.2384 264.234C89.0401 261.218 92.5903 258.738 103.583 252.065C115.282 244.986 119.794 242.034 125.847 237.5C127.151 236.517 128.285 235.725 128.37 235.725C128.456 235.725 129.461 236.431 130.595 237.287C136.39 241.692 141.545 245.071 152.773 251.872C163.744 258.524 166.995 260.769 170.011 263.785C170.78 264.555 171.786 265.731 172.235 266.415C173.154 267.827 174.031 270.137 174.053 271.206C174.053 271.612 174.095 271.89 174.16 271.826C174.245 271.741 178.758 253.412 178.758 253.156C178.758 253.134 178.095 253.049 177.303 252.985C172.192 252.493 160.13 247.638 139.406 237.714C134.872 235.533 131.129 233.715 131.065 233.651C131.001 233.608 131.258 233.309 131.6 233.009C134.081 230.913 137.246 228.133 137.203 228.09C137.16 228.069 135.171 229.01 132.776 230.186C128.648 232.218 128.392 232.303 127.772 232.068C127.408 231.919 125.376 230.956 123.259 229.908L119.409 228.005L120.479 229.01Z" fill="black"/>
</svg>
